solid 280 EA Oct 23
facet normal 0.0 0.0 1.0
  outer loop
    vertex 430.92513437106135 -0.26286606316049266 0.0
    vertex 414.22513437106136 4.4371339368395075 0.0
    vertex 414.22513437106136 -0.26286606316049266 0.0
  endloop
endfacet
facet normal 0.0 0.0 1.0
  outer loop
    vertex 414.22513437106136 4.4371339368395075 0.0
    vertex 430.92513437106135 -0.26286606316049266 0.0
    vertex 430.92513437106135 4.4371339368395075 0.0
  endloop
endfacet
facet normal -1.0 0.0 0.0
  outer loop
    vertex 409.5751343710613 8.587133936839507 3.9999999999999996
    vertex 409.5751343710613 -4.412866063160492 -0.9999999999999999
    vertex 409.5751343710613 -4.412866063160492 3.9999999999999996
  endloop
endfacet
facet normal -1.0 0.0 0.0
  outer loop
    vertex 409.5751343710613 -4.412866063160492 -0.9999999999999999
    vertex 409.5751343710613 8.587133936839507 3.9999999999999996
    vertex 409.5751343710613 8.587133936839507 -0.9999999999999999
  endloop
endfacet
facet normal -0.0 -1.0 -0.0
  outer loop
    vertex 435.5751343710614 -4.412866063160492 3.9999999999999996
    vertex 409.5751343710613 -4.412866063160492 -0.9999999999999999
    vertex 435.5751343710614 -4.412866063160492 -0.9999999999999999
  endloop
endfacet
facet normal -0.0 -1.0 -0.0
  outer loop
    vertex 409.5751343710613 -4.412866063160492 -0.9999999999999999
    vertex 435.5751343710614 -4.412866063160492 3.9999999999999996
    vertex 409.5751343710613 -4.412866063160492 3.9999999999999996
  endloop
endfacet
facet normal 0.0 1.0 0.0
  outer loop
    vertex 409.5751343710613 8.587133936839507 3.9999999999999996
    vertex 435.5751343710614 8.587133936839507 -0.9999999999999999
    vertex 409.5751343710613 8.587133936839507 -0.9999999999999999
  endloop
endfacet
facet normal 0.0 1.0 0.0
  outer loop
    vertex 435.5751343710614 8.587133936839507 -0.9999999999999999
    vertex 409.5751343710613 8.587133936839507 3.9999999999999996
    vertex 435.5751343710614 8.587133936839507 3.9999999999999996
  endloop
endfacet
facet normal 1.0 0.0 0.0
  outer loop
    vertex 435.5751343710614 8.587133936839507 -0.9999999999999999
    vertex 435.5751343710614 -4.412866063160492 3.9999999999999996
    vertex 435.5751343710614 -4.412866063160492 -0.9999999999999999
  endloop
endfacet
facet normal 1.0 0.0 0.0
  outer loop
    vertex 435.5751343710614 -4.412866063160492 3.9999999999999996
    vertex 435.5751343710614 8.587133936839507 -0.9999999999999999
    vertex 435.5751343710614 8.587133936839507 3.9999999999999996
  endloop
endfacet
facet normal 0.0 0.0 -1.0
  outer loop
    vertex 435.5751343710614 8.587133936839507 -0.9999999999999999
    vertex 409.5751343710613 -4.412866063160492 -0.9999999999999999
    vertex 409.5751343710613 8.587133936839507 -0.9999999999999999
  endloop
endfacet
facet normal 0.0 0.0 -1.0
  outer loop
    vertex 409.5751343710613 -4.412866063160492 -0.9999999999999999
    vertex 435.5751343710614 8.587133936839507 -0.9999999999999999
    vertex 435.5751343710614 -4.412866063160492 -0.9999999999999999
  endloop
endfacet
facet normal 0.0 -0.9993792971367171 0.03522812022406936
  outer loop
    vertex 431.4261343710614 4.578133936839508 3.9999999999999996
    vertex 414.22513437106136 4.4371339368395075 0.0
    vertex 430.92513437106135 4.4371339368395075 0.0
  endloop
endfacet
facet normal 0.0 -0.9993792971367171 0.03522812022406936
  outer loop
    vertex 414.22513437106136 4.4371339368395075 0.0
    vertex 431.4261343710614 4.578133936839508 3.9999999999999996
    vertex 413.7241343710613 4.578133936839508 3.9999999999999996
  endloop
endfacet
facet normal 0.0 0.9993792971367171 0.03522812022406928
  outer loop
    vertex 413.7241343710613 -0.4038660631604923 3.9999999999999996
    vertex 430.92513437106135 -0.26286606316049266 0.0
    vertex 414.22513437106136 -0.26286606316049266 0.0
  endloop
endfacet
facet normal 0.0 0.9993792971367171 0.03522812022406928
  outer loop
    vertex 430.92513437106135 -0.26286606316049266 0.0
    vertex 413.7241343710613 -0.4038660631604923 3.9999999999999996
    vertex 431.4261343710614 -0.4038660631604923 3.9999999999999996
  endloop
endfacet
facet normal -0.9922473159669636 -1.1836388018273575e-20 0.12427897632486798
  outer loop
    vertex 431.4261343710614 4.578133936839508 3.9999999999999996
    vertex 430.92513437106135 -0.26286606316049266 0.0
    vertex 431.4261343710614 -0.4038660631604923 3.9999999999999996
  endloop
endfacet
facet normal -0.9922473159669636 -1.1836388018273575e-20 0.12427897632486798
  outer loop
    vertex 430.92513437106135 -0.26286606316049266 0.0
    vertex 431.4261343710614 4.578133936839508 3.9999999999999996
    vertex 430.92513437106135 4.4371339368395075 0.0
  endloop
endfacet
facet normal 0.9922473159669636 -1.1836388018273575e-20 0.12427897632486798
  outer loop
    vertex 414.22513437106136 -0.26286606316049266 0.0
    vertex 413.7241343710613 4.578133936839508 3.9999999999999996
    vertex 413.7241343710613 -0.4038660631604923 3.9999999999999996
  endloop
endfacet
facet normal 0.9922473159669636 -1.1836388018273575e-20 0.12427897632486798
  outer loop
    vertex 413.7241343710613 4.578133936839508 3.9999999999999996
    vertex 414.22513437106136 -0.26286606316049266 0.0
    vertex 414.22513437106136 4.4371339368395075 0.0
  endloop
endfacet
facet normal 0.0 0.0 1.0
  outer loop
    vertex 409.5751343710613 -4.412866063160492 3.9999999999999996
    vertex 413.7241343710613 -0.4038660631604923 3.9999999999999996
    vertex 409.5751343710613 8.587133936839507 3.9999999999999996
  endloop
endfacet
facet normal 0.0 0.0 1.0
  outer loop
    vertex 413.7241343710613 -0.4038660631604923 3.9999999999999996
    vertex 409.5751343710613 -4.412866063160492 3.9999999999999996
    vertex 435.5751343710614 -4.412866063160492 3.9999999999999996
  endloop
endfacet
facet normal 0.0 0.0 1.0
  outer loop
    vertex 413.7241343710613 -0.4038660631604923 3.9999999999999996
    vertex 435.5751343710614 -4.412866063160492 3.9999999999999996
    vertex 431.4261343710614 -0.4038660631604923 3.9999999999999996
  endloop
endfacet
facet normal 0.0 0.0 1.0
  outer loop
    vertex 431.4261343710614 -0.4038660631604923 3.9999999999999996
    vertex 435.5751343710614 -4.412866063160492 3.9999999999999996
    vertex 431.4261343710614 4.578133936839508 3.9999999999999996
  endloop
endfacet
facet normal 0.0 0.0 1.0
  outer loop
    vertex 409.5751343710613 8.587133936839507 3.9999999999999996
    vertex 413.7241343710613 4.578133936839508 3.9999999999999996
    vertex 435.5751343710614 8.587133936839507 3.9999999999999996
  endloop
endfacet
facet normal 0.0 0.0 1.0
  outer loop
    vertex 413.7241343710613 4.578133936839508 3.9999999999999996
    vertex 409.5751343710613 8.587133936839507 3.9999999999999996
    vertex 413.7241343710613 -0.4038660631604923 3.9999999999999996
  endloop
endfacet
facet normal 0.0 0.0 1.0
  outer loop
    vertex 435.5751343710614 8.587133936839507 3.9999999999999996
    vertex 413.7241343710613 4.578133936839508 3.9999999999999996
    vertex 431.4261343710614 4.578133936839508 3.9999999999999996
  endloop
endfacet
facet normal 0.0 0.0 1.0
  outer loop
    vertex 435.5751343710614 8.587133936839507 3.9999999999999996
    vertex 431.4261343710614 4.578133936839508 3.9999999999999996
    vertex 435.5751343710614 -4.412866063160492 3.9999999999999996
  endloop
endfacet
endsolid 280 EA Oct 23
