solid 280 EA Oct 23
facet normal 0.7933533402912526 -0.6087614290086979 0.0
  outer loop
    vertex 1765.6373275245853 224.52015353780953 7.049916206369744e-16
    vertex 1765.3671658661688 224.16807200979238 1.9999999999999998
    vertex 1765.3671658661688 224.16807200979238 7.049916206369744e-16
  endloop
endfacet
facet normal 0.7933533402912526 -0.6087614290086979 0.0
  outer loop
    vertex 1765.3671658661688 224.16807200979238 1.9999999999999998
    vertex 1765.6373275245853 224.52015353780953 7.049916206369744e-16
    vertex 1765.6373275245853 224.52015353780953 1.9999999999999998
  endloop
endfacet
facet normal 0.6087614290087034 -0.7933533402912486 0.0
  outer loop
    vertex 1765.9894090526025 224.79031519622595 1.9999999999999998
    vertex 1765.6373275245853 224.52015353780953 7.049916206369744e-16
    vertex 1765.9894090526025 224.79031519622595 7.049916206369744e-16
  endloop
endfacet
facet normal 0.6087614290087034 -0.7933533402912486 0.0
  outer loop
    vertex 1765.6373275245853 224.52015353780953 7.049916206369744e-16
    vertex 1765.9894090526025 224.79031519622595 1.9999999999999998
    vertex 1765.6373275245853 224.52015353780953 1.9999999999999998
  endloop
endfacet
facet normal 0.13052619222012793 -0.9914448613738004 0.0
  outer loop
    vertex 1766.8394090526026 225.0180720097924 1.9999999999999998
    vertex 1766.399416675928 224.9601459144838 7.049916206369744e-16
    vertex 1766.8394090526026 225.0180720097924 7.049916206369744e-16
  endloop
endfacet
facet normal 0.13052619222012793 -0.9914448613738004 0.0
  outer loop
    vertex 1766.399416675928 224.9601459144838 7.049916206369744e-16
    vertex 1766.8394090526026 225.0180720097924 1.9999999999999998
    vertex 1766.399416675928 224.9601459144838 1.9999999999999998
  endloop
endfacet
facet normal 0.38268343236506797 -0.9238795325112958 0.0
  outer loop
    vertex 1766.399416675928 224.9601459144838 1.9999999999999998
    vertex 1765.9894090526025 224.79031519622595 7.049916206369744e-16
    vertex 1766.399416675928 224.9601459144838 7.049916206369744e-16
  endloop
endfacet
facet normal 0.38268343236506797 -0.9238795325112958 0.0
  outer loop
    vertex 1765.9894090526025 224.79031519622595 7.049916206369744e-16
    vertex 1766.399416675928 224.9601459144838 1.9999999999999998
    vertex 1765.9894090526025 224.79031519622595 1.9999999999999998
  endloop
endfacet
facet normal 0.923879532511292 -0.3826834323650775 0.0
  outer loop
    vertex 1765.3671658661688 224.16807200979238 7.049916206369744e-16
    vertex 1765.1973351479112 223.75806438646666 1.9999999999999998
    vertex 1765.1973351479112 223.75806438646666 7.049916206369744e-16
  endloop
endfacet
facet normal 0.923879532511292 -0.3826834323650775 0.0
  outer loop
    vertex 1765.1973351479112 223.75806438646666 1.9999999999999998
    vertex 1765.3671658661688 224.16807200979238 7.049916206369744e-16
    vertex 1765.3671658661688 224.16807200979238 1.9999999999999998
  endloop
endfacet
facet normal 0.9914448613738095 -0.13052619222005957 0.0
  outer loop
    vertex 1765.1973351479112 223.75806438646666 7.049916206369744e-16
    vertex 1765.1394090526023 223.3180720097924 1.9999999999999998
    vertex 1765.1394090526023 223.3180720097924 7.049916206369744e-16
  endloop
endfacet
facet normal 0.9914448613738095 -0.13052619222005957 0.0
  outer loop
    vertex 1765.1394090526023 223.3180720097924 1.9999999999999998
    vertex 1765.1973351479112 223.75806438646666 7.049916206369744e-16
    vertex 1765.1973351479112 223.75806438646666 1.9999999999999998
  endloop
endfacet
facet normal 0.9914448613738113 0.1305261922200464 0.0
  outer loop
    vertex 1765.1394090526023 223.3180720097924 7.049916206369744e-16
    vertex 1765.1973351479112 222.8780796331181 1.9999999999999998
    vertex 1765.1973351479112 222.8780796331181 7.049916206369744e-16
  endloop
endfacet
facet normal 0.9914448613738113 0.1305261922200464 0.0
  outer loop
    vertex 1765.1973351479112 222.8780796331181 1.9999999999999998
    vertex 1765.1394090526023 223.3180720097924 7.049916206369744e-16
    vertex 1765.1394090526023 223.3180720097924 1.9999999999999998
  endloop
endfacet
facet normal 0.9238795325112749 0.38268343236511887 0.0
  outer loop
    vertex 1765.1973351479112 222.8780796331181 7.049916206369744e-16
    vertex 1765.3671658661688 222.4680720097924 1.9999999999999998
    vertex 1765.3671658661688 222.4680720097924 7.049916206369744e-16
  endloop
endfacet
facet normal 0.9238795325112749 0.38268343236511887 0.0
  outer loop
    vertex 1765.3671658661688 222.4680720097924 1.9999999999999998
    vertex 1765.1973351479112 222.8780796331181 7.049916206369744e-16
    vertex 1765.1973351479112 222.8780796331181 1.9999999999999998
  endloop
endfacet
facet normal 0.7933533402912526 0.6087614290086979 0.0
  outer loop
    vertex 1765.3671658661688 222.4680720097924 7.049916206369744e-16
    vertex 1765.6373275245853 222.11599048177524 1.9999999999999998
    vertex 1765.6373275245853 222.11599048177524 7.049916206369744e-16
  endloop
endfacet
facet normal 0.7933533402912526 0.6087614290086979 0.0
  outer loop
    vertex 1765.6373275245853 222.11599048177524 1.9999999999999998
    vertex 1765.3671658661688 222.4680720097924 7.049916206369744e-16
    vertex 1765.3671658661688 222.4680720097924 1.9999999999999998
  endloop
endfacet
facet normal 0.6087614290087034 0.7933533402912486 0.0
  outer loop
    vertex 1765.6373275245853 222.11599048177524 1.9999999999999998
    vertex 1765.9894090526025 221.84582882335886 7.049916206369744e-16
    vertex 1765.6373275245853 222.11599048177524 7.049916206369744e-16
  endloop
endfacet
facet normal 0.6087614290087034 0.7933533402912486 0.0
  outer loop
    vertex 1765.9894090526025 221.84582882335886 7.049916206369744e-16
    vertex 1765.6373275245853 222.11599048177524 1.9999999999999998
    vertex 1765.9894090526025 221.84582882335886 1.9999999999999998
  endloop
endfacet
facet normal 0.38268343236507024 0.923879532511295 0.0
  outer loop
    vertex 1765.9894090526025 221.84582882335886 1.9999999999999998
    vertex 1766.399416675928 221.675998105101 7.049916206369744e-16
    vertex 1765.9894090526025 221.84582882335886 7.049916206369744e-16
  endloop
endfacet
facet normal 0.38268343236507024 0.923879532511295 0.0
  outer loop
    vertex 1766.399416675928 221.675998105101 7.049916206369744e-16
    vertex 1765.9894090526025 221.84582882335886 1.9999999999999998
    vertex 1766.399416675928 221.675998105101 1.9999999999999998
  endloop
endfacet
facet normal 0.13052619222012793 0.9914448613738004 0.0
  outer loop
    vertex 1766.399416675928 221.675998105101 1.9999999999999998
    vertex 1766.8394090526026 221.61807200979237 7.049916206369744e-16
    vertex 1766.399416675928 221.675998105101 7.049916206369744e-16
  endloop
endfacet
facet normal 0.13052619222012793 0.9914448613738004 0.0
  outer loop
    vertex 1766.8394090526026 221.61807200979237 7.049916206369744e-16
    vertex 1766.399416675928 221.675998105101 1.9999999999999998
    vertex 1766.8394090526026 221.61807200979237 1.9999999999999998
  endloop
endfacet
facet normal -0.13052619222012793 0.9914448613738004 0.0
  outer loop
    vertex 1766.8394090526026 221.61807200979237 1.9999999999999998
    vertex 1767.2794014292767 221.675998105101 7.049916206369744e-16
    vertex 1766.8394090526026 221.61807200979237 7.049916206369744e-16
  endloop
endfacet
facet normal -0.13052619222012793 0.9914448613738004 0.0
  outer loop
    vertex 1767.2794014292767 221.675998105101 7.049916206369744e-16
    vertex 1766.8394090526026 221.61807200979237 1.9999999999999998
    vertex 1767.2794014292767 221.675998105101 1.9999999999999998
  endloop
endfacet
facet normal -0.38268343236506797 0.9238795325112958 0.0
  outer loop
    vertex 1767.2794014292767 221.675998105101 1.9999999999999998
    vertex 1767.6894090526025 221.84582882335886 7.049916206369744e-16
    vertex 1767.2794014292767 221.675998105101 7.049916206369744e-16
  endloop
endfacet
facet normal -0.38268343236506797 0.9238795325112958 0.0
  outer loop
    vertex 1767.6894090526025 221.84582882335886 7.049916206369744e-16
    vertex 1767.2794014292767 221.675998105101 1.9999999999999998
    vertex 1767.6894090526025 221.84582882335886 1.9999999999999998
  endloop
endfacet
facet normal -0.6087614290087066 0.7933533402912462 0.0
  outer loop
    vertex 1767.6894090526025 221.84582882335886 1.9999999999999998
    vertex 1768.0414905806194 222.11599048177524 7.049916206369744e-16
    vertex 1767.6894090526025 221.84582882335886 7.049916206369744e-16
  endloop
endfacet
facet normal -0.6087614290087066 0.7933533402912462 0.0
  outer loop
    vertex 1768.0414905806194 222.11599048177524 7.049916206369744e-16
    vertex 1767.6894090526025 221.84582882335886 1.9999999999999998
    vertex 1768.0414905806194 222.11599048177524 1.9999999999999998
  endloop
endfacet
facet normal -0.7933533402912495 0.6087614290087019 0.0
  outer loop
    vertex 1768.311652239036 222.4680720097924 1.9999999999999998
    vertex 1768.0414905806194 222.11599048177524 7.049916206369744e-16
    vertex 1768.0414905806194 222.11599048177524 1.9999999999999998
  endloop
endfacet
facet normal -0.7933533402912495 0.6087614290087019 0.0
  outer loop
    vertex 1768.0414905806194 222.11599048177524 7.049916206369744e-16
    vertex 1768.311652239036 222.4680720097924 1.9999999999999998
    vertex 1768.311652239036 222.4680720097924 7.049916206369744e-16
  endloop
endfacet
facet normal -0.923879532511292 0.3826834323650775 0.0
  outer loop
    vertex 1768.4814829572938 222.87807963311812 1.9999999999999998
    vertex 1768.311652239036 222.4680720097924 7.049916206369744e-16
    vertex 1768.311652239036 222.4680720097924 1.9999999999999998
  endloop
endfacet
facet normal -0.923879532511292 0.3826834323650775 0.0
  outer loop
    vertex 1768.311652239036 222.4680720097924 7.049916206369744e-16
    vertex 1768.4814829572938 222.87807963311812 1.9999999999999998
    vertex 1768.4814829572938 222.87807963311812 7.049916206369744e-16
  endloop
endfacet
facet normal -0.9914448613738095 0.13052619222005957 0.0
  outer loop
    vertex 1768.5394090526027 223.3180720097924 1.9999999999999998
    vertex 1768.4814829572938 222.87807963311812 7.049916206369744e-16
    vertex 1768.4814829572938 222.87807963311812 1.9999999999999998
  endloop
endfacet
facet normal -0.9914448613738095 0.13052619222005957 0.0
  outer loop
    vertex 1768.4814829572938 222.87807963311812 7.049916206369744e-16
    vertex 1768.5394090526027 223.3180720097924 1.9999999999999998
    vertex 1768.5394090526027 223.3180720097924 7.049916206369744e-16
  endloop
endfacet
facet normal -0.9914448613738113 -0.1305261922200464 -0.0
  outer loop
    vertex 1768.4814829572938 223.7580643864667 1.9999999999999998
    vertex 1768.5394090526027 223.3180720097924 7.049916206369744e-16
    vertex 1768.5394090526027 223.3180720097924 1.9999999999999998
  endloop
endfacet
facet normal -0.9914448613738113 -0.1305261922200464 -0.0
  outer loop
    vertex 1768.5394090526027 223.3180720097924 7.049916206369744e-16
    vertex 1768.4814829572938 223.7580643864667 1.9999999999999998
    vertex 1768.4814829572938 223.7580643864667 7.049916206369744e-16
  endloop
endfacet
facet normal -0.9238795325112749 -0.38268343236511887 -0.0
  outer loop
    vertex 1768.311652239036 224.16807200979238 1.9999999999999998
    vertex 1768.4814829572938 223.7580643864667 7.049916206369744e-16
    vertex 1768.4814829572938 223.7580643864667 1.9999999999999998
  endloop
endfacet
facet normal -0.9238795325112749 -0.38268343236511887 -0.0
  outer loop
    vertex 1768.4814829572938 223.7580643864667 7.049916206369744e-16
    vertex 1768.311652239036 224.16807200979238 1.9999999999999998
    vertex 1768.311652239036 224.16807200979238 7.049916206369744e-16
  endloop
endfacet
facet normal -0.7933533402912526 -0.6087614290086979 -0.0
  outer loop
    vertex 1768.0414905806194 224.52015353780953 1.9999999999999998
    vertex 1768.311652239036 224.16807200979238 7.049916206369744e-16
    vertex 1768.311652239036 224.16807200979238 1.9999999999999998
  endloop
endfacet
facet normal -0.7933533402912526 -0.6087614290086979 -0.0
  outer loop
    vertex 1768.311652239036 224.16807200979238 7.049916206369744e-16
    vertex 1768.0414905806194 224.52015353780953 1.9999999999999998
    vertex 1768.0414905806194 224.52015353780953 7.049916206369744e-16
  endloop
endfacet
facet normal -0.6087614290087034 -0.7933533402912486 -0.0
  outer loop
    vertex 1768.0414905806194 224.52015353780953 1.9999999999999998
    vertex 1767.6894090526025 224.79031519622595 7.049916206369744e-16
    vertex 1768.0414905806194 224.52015353780953 7.049916206369744e-16
  endloop
endfacet
facet normal -0.6087614290087034 -0.7933533402912486 -0.0
  outer loop
    vertex 1767.6894090526025 224.79031519622595 7.049916206369744e-16
    vertex 1768.0414905806194 224.52015353780953 1.9999999999999998
    vertex 1767.6894090526025 224.79031519622595 1.9999999999999998
  endloop
endfacet
facet normal -0.38268343236507024 -0.923879532511295 -0.0
  outer loop
    vertex 1767.6894090526025 224.79031519622595 1.9999999999999998
    vertex 1767.2794014292767 224.9601459144838 7.049916206369744e-16
    vertex 1767.6894090526025 224.79031519622595 7.049916206369744e-16
  endloop
endfacet
facet normal -0.38268343236507024 -0.923879532511295 -0.0
  outer loop
    vertex 1767.2794014292767 224.9601459144838 7.049916206369744e-16
    vertex 1767.6894090526025 224.79031519622595 1.9999999999999998
    vertex 1767.2794014292767 224.9601459144838 1.9999999999999998
  endloop
endfacet
facet normal -0.13052619222012793 -0.9914448613738004 -0.0
  outer loop
    vertex 1767.2794014292767 224.9601459144838 1.9999999999999998
    vertex 1766.8394090526026 225.0180720097924 7.049916206369744e-16
    vertex 1767.2794014292767 224.9601459144838 7.049916206369744e-16
  endloop
endfacet
facet normal -0.13052619222012793 -0.9914448613738004 -0.0
  outer loop
    vertex 1766.8394090526026 225.0180720097924 7.049916206369744e-16
    vertex 1767.2794014292767 224.9601459144838 1.9999999999999998
    vertex 1766.8394090526026 225.0180720097924 1.9999999999999998
  endloop
endfacet
facet normal 0.0 0.0 -1.0
  outer loop
    vertex 1763.7603275905935 224.3581476562296 0.0
    vertex 1763.6528084629622 222.67926321046 0.0
    vertex 1763.5960533615546 223.52578301419032 0.0
  endloop
endfacet
facet normal 0.0 0.0 -1.0
  outer loop
    vertex 1763.6528084629622 222.67926321046 0.0
    vertex 1763.7603275905935 224.3581476562296 0.0
    vertex 1763.9267251284473 221.8762771707227 0.0
  endloop
endfacet
facet normal 0.0 0.0 -1.0
  outer loop
    vertex 1763.9267251284473 221.8762771707227 0.0
    vertex 1763.7603275905935 224.3581476562296 0.0
    vertex 1764.1344361328454 225.11963286177044 0.0
  endloop
endfacet
facet normal 0.0 0.0 -1.0
  outer loop
    vertex 1763.9267251284473 221.8762771707227 0.0
    vertex 1764.1344361328454 225.11963286177044 0.0
    vertex 1764.3991363899258 221.17154706658937 0.0
  endloop
endfacet
facet normal 0.0 0.0 -1.0
  outer loop
    vertex 1764.3991363899258 221.17154706658937 0.0
    vertex 1764.1344361328454 225.11963286177044 0.0
    vertex 1764.6928841093995 225.7583446724691 0.0
  endloop
endfacet
facet normal 0.0 0.0 -1.0
  outer loop
    vertex 1764.3991363899258 221.17154706658937 0.0
    vertex 1764.6928841093995 225.7583446724691 0.0
    vertex 1765.0378482006242 220.61309909003512 0.0
  endloop
endfacet
facet normal 0.0 0.0 -1.0
  outer loop
    vertex 1765.0378482006242 220.61309909003512 0.0
    vertex 1764.6928841093995 225.7583446724691 0.0
    vertex 1765.1394090526023 223.3180720097924 7.049916206369744e-16
  endloop
endfacet
facet normal 0.0 0.0 -1.0
  outer loop
    vertex 1765.1394090526023 223.3180720097924 7.049916206369744e-16
    vertex 1764.6928841093995 225.7583446724691 0.0
    vertex 1765.3976142135325 226.23075593394756 0.0
  endloop
endfacet
facet normal 0.0 0.0 -1.0
  outer loop
    vertex 1765.1394090526023 223.3180720097924 7.049916206369744e-16
    vertex 1765.3976142135325 226.23075593394756 0.0
    vertex 1765.1973351479112 223.75806438646666 7.049916206369744e-16
  endloop
endfacet
facet normal 0.0 0.0 -1.0
  outer loop
    vertex 1765.1973351479112 223.75806438646666 7.049916206369744e-16
    vertex 1765.3976142135325 226.23075593394756 0.0
    vertex 1765.3671658661688 224.16807200979238 7.049916206369744e-16
  endloop
endfacet
facet normal 0.0 0.0 -1.0
  outer loop
    vertex 1765.3671658661688 224.16807200979238 7.049916206369744e-16
    vertex 1765.3976142135325 226.23075593394756 0.0
    vertex 1765.6373275245853 224.52015353780953 7.049916206369744e-16
  endloop
endfacet
facet normal 0.0 0.0 -1.0
  outer loop
    vertex 1765.6373275245853 224.52015353780953 7.049916206369744e-16
    vertex 1765.3976142135325 226.23075593394756 0.0
    vertex 1766.2006002532698 226.5046725994326 0.0
  endloop
endfacet
facet normal 0.0 0.0 -1.0
  outer loop
    vertex 1765.6373275245853 224.52015353780953 7.049916206369744e-16
    vertex 1766.2006002532698 226.5046725994326 0.0
    vertex 1765.9894090526025 224.79031519622595 7.049916206369744e-16
  endloop
endfacet
facet normal 0.0 0.0 -1.0
  outer loop
    vertex 1765.9894090526025 224.79031519622595 7.049916206369744e-16
    vertex 1766.2006002532698 226.5046725994326 0.0
    vertex 1766.399416675928 224.9601459144838 7.049916206369744e-16
  endloop
endfacet
facet normal 0.0 0.0 -1.0
  outer loop
    vertex 1766.399416675928 224.9601459144838 7.049916206369744e-16
    vertex 1766.2006002532698 226.5046725994326 0.0
    vertex 1767.0471200570003 226.56142770084014 0.0
  endloop
endfacet
facet normal 0.0 0.0 -1.0
  outer loop
    vertex 1766.399416675928 224.9601459144838 7.049916206369744e-16
    vertex 1767.0471200570003 226.56142770084014 0.0
    vertex 1766.8394090526026 225.0180720097924 7.049916206369744e-16
  endloop
endfacet
facet normal 0.0 0.0 -1.0
  outer loop
    vertex 1766.8394090526026 225.0180720097924 7.049916206369744e-16
    vertex 1767.0471200570003 226.56142770084014 0.0
    vertex 1767.2794014292767 224.9601459144838 7.049916206369744e-16
  endloop
endfacet
facet normal 0.0 0.0 -1.0
  outer loop
    vertex 1767.2794014292767 224.9601459144838 7.049916206369744e-16
    vertex 1767.0471200570003 226.56142770084014 0.0
    vertex 1767.8794846990395 226.3971534718015 0.0
  endloop
endfacet
facet normal 0.0 0.0 -1.0
  outer loop
    vertex 1767.2794014292767 224.9601459144838 7.049916206369744e-16
    vertex 1767.8794846990395 226.3971534718015 0.0
    vertex 1767.6894090526025 224.79031519622595 7.049916206369744e-16
  endloop
endfacet
facet normal 0.0 0.0 -1.0
  outer loop
    vertex 1767.6894090526025 224.79031519622595 7.049916206369744e-16
    vertex 1767.8794846990395 226.3971534718015 0.0
    vertex 1768.0414905806194 224.52015353780953 7.049916206369744e-16
  endloop
endfacet
facet normal 0.0 0.0 -1.0
  outer loop
    vertex 1768.0414905806194 224.52015353780953 7.049916206369744e-16
    vertex 1767.8794846990395 226.3971534718015 0.0
    vertex 1768.6409699045805 226.02304492954966 0.0
  endloop
endfacet
facet normal 0.0 0.0 -1.0
  outer loop
    vertex 1768.0414905806194 224.52015353780953 7.049916206369744e-16
    vertex 1768.6409699045805 226.02304492954966 0.0
    vertex 1768.311652239036 224.16807200979238 7.049916206369744e-16
  endloop
endfacet
facet normal 0.0 0.0 -1.0
  outer loop
    vertex 1768.311652239036 224.16807200979238 7.049916206369744e-16
    vertex 1768.6409699045805 226.02304492954966 0.0
    vertex 1768.4814829572938 223.7580643864667 7.049916206369744e-16
  endloop
endfacet
facet normal 0.0 0.0 -1.0
  outer loop
    vertex 1768.4814829572938 223.7580643864667 7.049916206369744e-16
    vertex 1768.6409699045805 226.02304492954966 0.0
    vertex 1768.5394090526027 223.3180720097924 7.049916206369744e-16
  endloop
endfacet
facet normal 0.0 0.0 -1.0
  outer loop
    vertex 1765.0378482006242 220.61309909003512 0.0
    vertex 1765.1973351479112 222.8780796331181 7.049916206369744e-16
    vertex 1765.7993334061653 220.2389905477833 0.0
  endloop
endfacet
facet normal 0.0 0.0 -1.0
  outer loop
    vertex 1765.1973351479112 222.8780796331181 7.049916206369744e-16
    vertex 1765.0378482006242 220.61309909003512 0.0
    vertex 1765.1394090526023 223.3180720097924 7.049916206369744e-16
  endloop
endfacet
facet normal 0.0 0.0 -1.0
  outer loop
    vertex 1765.7993334061653 220.2389905477833 0.0
    vertex 1765.1973351479112 222.8780796331181 7.049916206369744e-16
    vertex 1765.3671658661688 222.4680720097924 7.049916206369744e-16
  endloop
endfacet
facet normal 0.0 0.0 -1.0
  outer loop
    vertex 1765.7993334061653 220.2389905477833 0.0
    vertex 1765.3671658661688 222.4680720097924 7.049916206369744e-16
    vertex 1765.6373275245853 222.11599048177524 7.049916206369744e-16
  endloop
endfacet
facet normal 0.0 0.0 -1.0
  outer loop
    vertex 1765.7993334061653 220.2389905477833 0.0
    vertex 1765.6373275245853 222.11599048177524 7.049916206369744e-16
    vertex 1765.9894090526025 221.84582882335886 7.049916206369744e-16
  endloop
endfacet
facet normal 0.0 0.0 -1.0
  outer loop
    vertex 1765.7993334061653 220.2389905477833 0.0
    vertex 1765.9894090526025 221.84582882335886 7.049916206369744e-16
    vertex 1766.6316980482045 220.07471631874463 0.0
  endloop
endfacet
facet normal 0.0 0.0 -1.0
  outer loop
    vertex 1766.6316980482045 220.07471631874463 0.0
    vertex 1765.9894090526025 221.84582882335886 7.049916206369744e-16
    vertex 1766.399416675928 221.675998105101 7.049916206369744e-16
  endloop
endfacet
facet normal 0.0 0.0 -1.0
  outer loop
    vertex 1766.6316980482045 220.07471631874463 0.0
    vertex 1766.399416675928 221.675998105101 7.049916206369744e-16
    vertex 1766.8394090526026 221.61807200979237 7.049916206369744e-16
  endloop
endfacet
facet normal 0.0 0.0 -1.0
  outer loop
    vertex 1766.6316980482045 220.07471631874463 0.0
    vertex 1766.8394090526026 221.61807200979237 7.049916206369744e-16
    vertex 1767.478217851935 220.13147142015217 0.0
  endloop
endfacet
facet normal 0.0 0.0 -1.0
  outer loop
    vertex 1767.478217851935 220.13147142015217 0.0
    vertex 1766.8394090526026 221.61807200979237 7.049916206369744e-16
    vertex 1767.2794014292767 221.675998105101 7.049916206369744e-16
  endloop
endfacet
facet normal 0.0 0.0 -1.0
  outer loop
    vertex 1767.478217851935 220.13147142015217 0.0
    vertex 1767.2794014292767 221.675998105101 7.049916206369744e-16
    vertex 1767.6894090526025 221.84582882335886 7.049916206369744e-16
  endloop
endfacet
facet normal 0.0 0.0 -1.0
  outer loop
    vertex 1767.478217851935 220.13147142015217 0.0
    vertex 1767.6894090526025 221.84582882335886 7.049916206369744e-16
    vertex 1768.2812038916722 220.40538808563724 0.0
  endloop
endfacet
facet normal 0.0 0.0 -1.0
  outer loop
    vertex 1768.2812038916722 220.40538808563724 0.0
    vertex 1767.6894090526025 221.84582882335886 7.049916206369744e-16
    vertex 1768.0414905806194 222.11599048177524 7.049916206369744e-16
  endloop
endfacet
facet normal 0.0 0.0 -1.0
  outer loop
    vertex 1768.2812038916722 220.40538808563724 0.0
    vertex 1768.0414905806194 222.11599048177524 7.049916206369744e-16
    vertex 1768.311652239036 222.4680720097924 7.049916206369744e-16
  endloop
endfacet
facet normal 0.0 0.0 -1.0
  outer loop
    vertex 1768.2812038916722 220.40538808563724 0.0
    vertex 1768.311652239036 222.4680720097924 7.049916206369744e-16
    vertex 1768.9859339958055 220.87779934711568 0.0
  endloop
endfacet
facet normal 0.0 0.0 -1.0
  outer loop
    vertex 1768.9859339958055 220.87779934711568 0.0
    vertex 1768.311652239036 222.4680720097924 7.049916206369744e-16
    vertex 1768.4814829572938 222.87807963311812 7.049916206369744e-16
  endloop
endfacet
facet normal 0.0 0.0 -1.0
  outer loop
    vertex 1768.9859339958055 220.87779934711568 0.0
    vertex 1768.4814829572938 222.87807963311812 7.049916206369744e-16
    vertex 1768.5394090526027 223.3180720097924 7.049916206369744e-16
  endloop
endfacet
facet normal 0.0 0.0 -1.0
  outer loop
    vertex 1768.9859339958055 220.87779934711568 0.0
    vertex 1768.5394090526027 223.3180720097924 7.049916206369744e-16
    vertex 1768.6409699045805 226.02304492954966 0.0
  endloop
endfacet
facet normal 0.0 0.0 -1.0
  outer loop
    vertex 1768.9859339958055 220.87779934711568 0.0
    vertex 1768.6409699045805 226.02304492954966 0.0
    vertex 1769.279681715279 225.4645969529954 0.0
  endloop
endfacet
facet normal 0.0 0.0 -1.0
  outer loop
    vertex 1768.9859339958055 220.87779934711568 0.0
    vertex 1769.279681715279 225.4645969529954 0.0
    vertex 1769.5443819723598 221.51651115781434 0.0
  endloop
endfacet
facet normal 0.0 0.0 -1.0
  outer loop
    vertex 1769.5443819723598 221.51651115781434 0.0
    vertex 1769.279681715279 225.4645969529954 0.0
    vertex 1769.7520929767577 224.7598668488621 0.0
  endloop
endfacet
facet normal 0.0 0.0 -1.0
  outer loop
    vertex 1769.5443819723598 221.51651115781434 0.0
    vertex 1769.7520929767577 224.7598668488621 0.0
    vertex 1769.9184905146117 222.2779963633552 0.0
  endloop
endfacet
facet normal 0.0 0.0 -1.0
  outer loop
    vertex 1769.9184905146117 222.2779963633552 0.0
    vertex 1769.7520929767577 224.7598668488621 0.0
    vertex 1770.0260096422426 223.95688080912478 0.0
  endloop
endfacet
facet normal 0.0 0.0 -1.0
  outer loop
    vertex 1769.9184905146117 222.2779963633552 0.0
    vertex 1770.0260096422426 223.95688080912478 0.0
    vertex 1770.0827647436502 223.11036100539445 0.0
  endloop
endfacet
facet normal 0.0 0.0 1.0
  outer loop
    vertex 1765.0378482006242 220.61309909003512 1.9999999999999998
    vertex 1765.1973351479112 222.8780796331181 1.9999999999999998
    vertex 1765.1394090526023 223.3180720097924 1.9999999999999998
  endloop
endfacet
facet normal 0.0 0.0 1.0
  outer loop
    vertex 1765.1973351479112 222.8780796331181 1.9999999999999998
    vertex 1765.0378482006242 220.61309909003512 1.9999999999999998
    vertex 1765.7993334061653 220.2389905477833 1.9999999999999998
  endloop
endfacet
facet normal 0.0 0.0 1.0
  outer loop
    vertex 1765.1973351479112 222.8780796331181 1.9999999999999998
    vertex 1765.7993334061653 220.2389905477833 1.9999999999999998
    vertex 1765.3671658661688 222.4680720097924 1.9999999999999998
  endloop
endfacet
facet normal 0.0 0.0 1.0
  outer loop
    vertex 1765.3671658661688 222.4680720097924 1.9999999999999998
    vertex 1765.7993334061653 220.2389905477833 1.9999999999999998
    vertex 1765.6373275245853 222.11599048177524 1.9999999999999998
  endloop
endfacet
facet normal 0.0 0.0 1.0
  outer loop
    vertex 1765.6373275245853 222.11599048177524 1.9999999999999998
    vertex 1765.7993334061653 220.2389905477833 1.9999999999999998
    vertex 1765.9894090526025 221.84582882335886 1.9999999999999998
  endloop
endfacet
facet normal 0.0 0.0 1.0
  outer loop
    vertex 1765.9894090526025 221.84582882335886 1.9999999999999998
    vertex 1765.7993334061653 220.2389905477833 1.9999999999999998
    vertex 1766.6316980482045 220.07471631874463 1.9999999999999998
  endloop
endfacet
facet normal 0.0 0.0 1.0
  outer loop
    vertex 1765.9894090526025 221.84582882335886 1.9999999999999998
    vertex 1766.6316980482045 220.07471631874463 1.9999999999999998
    vertex 1766.399416675928 221.675998105101 1.9999999999999998
  endloop
endfacet
facet normal 0.0 0.0 1.0
  outer loop
    vertex 1766.399416675928 221.675998105101 1.9999999999999998
    vertex 1766.6316980482045 220.07471631874463 1.9999999999999998
    vertex 1766.8394090526026 221.61807200979237 1.9999999999999998
  endloop
endfacet
facet normal 0.0 0.0 1.0
  outer loop
    vertex 1766.8394090526026 221.61807200979237 1.9999999999999998
    vertex 1766.6316980482045 220.07471631874463 1.9999999999999998
    vertex 1767.478217851935 220.13147142015217 1.9999999999999998
  endloop
endfacet
facet normal 0.0 0.0 1.0
  outer loop
    vertex 1766.8394090526026 221.61807200979237 1.9999999999999998
    vertex 1767.478217851935 220.13147142015217 1.9999999999999998
    vertex 1767.2794014292767 221.675998105101 1.9999999999999998
  endloop
endfacet
facet normal 0.0 0.0 1.0
  outer loop
    vertex 1767.2794014292767 221.675998105101 1.9999999999999998
    vertex 1767.478217851935 220.13147142015217 1.9999999999999998
    vertex 1767.6894090526025 221.84582882335886 1.9999999999999998
  endloop
endfacet
facet normal 0.0 0.0 1.0
  outer loop
    vertex 1767.6894090526025 221.84582882335886 1.9999999999999998
    vertex 1767.478217851935 220.13147142015217 1.9999999999999998
    vertex 1768.2812038916722 220.40538808563724 1.9999999999999998
  endloop
endfacet
facet normal 0.0 0.0 1.0
  outer loop
    vertex 1767.6894090526025 221.84582882335886 1.9999999999999998
    vertex 1768.2812038916722 220.40538808563724 1.9999999999999998
    vertex 1768.0414905806194 222.11599048177524 1.9999999999999998
  endloop
endfacet
facet normal 0.0 0.0 1.0
  outer loop
    vertex 1768.0414905806194 222.11599048177524 1.9999999999999998
    vertex 1768.2812038916722 220.40538808563724 1.9999999999999998
    vertex 1768.311652239036 222.4680720097924 1.9999999999999998
  endloop
endfacet
facet normal 0.0 0.0 1.0
  outer loop
    vertex 1768.311652239036 222.4680720097924 1.9999999999999998
    vertex 1768.2812038916722 220.40538808563724 1.9999999999999998
    vertex 1768.9859339958055 220.87779934711568 1.9999999999999998
  endloop
endfacet
facet normal 0.0 0.0 1.0
  outer loop
    vertex 1768.311652239036 222.4680720097924 1.9999999999999998
    vertex 1768.9859339958055 220.87779934711568 1.9999999999999998
    vertex 1768.4814829572938 222.87807963311812 1.9999999999999998
  endloop
endfacet
facet normal 0.0 0.0 1.0
  outer loop
    vertex 1768.4814829572938 222.87807963311812 1.9999999999999998
    vertex 1768.9859339958055 220.87779934711568 1.9999999999999998
    vertex 1768.5394090526027 223.3180720097924 1.9999999999999998
  endloop
endfacet
facet normal 0.0 0.0 1.0
  outer loop
    vertex 1768.5394090526027 223.3180720097924 1.9999999999999998
    vertex 1768.9859339958055 220.87779934711568 1.9999999999999998
    vertex 1768.6409699045805 226.02304492954966 1.9999999999999998
  endloop
endfacet
facet normal 0.0 0.0 1.0
  outer loop
    vertex 1768.6409699045805 226.02304492954966 1.9999999999999998
    vertex 1768.9859339958055 220.87779934711568 1.9999999999999998
    vertex 1769.279681715279 225.4645969529954 1.9999999999999998
  endloop
endfacet
facet normal 0.0 0.0 1.0
  outer loop
    vertex 1769.279681715279 225.4645969529954 1.9999999999999998
    vertex 1768.9859339958055 220.87779934711568 1.9999999999999998
    vertex 1769.5443819723598 221.51651115781434 1.9999999999999998
  endloop
endfacet
facet normal 0.0 0.0 1.0
  outer loop
    vertex 1769.279681715279 225.4645969529954 1.9999999999999998
    vertex 1769.5443819723598 221.51651115781434 1.9999999999999998
    vertex 1769.7520929767577 224.7598668488621 1.9999999999999998
  endloop
endfacet
facet normal 0.0 0.0 1.0
  outer loop
    vertex 1769.7520929767577 224.7598668488621 1.9999999999999998
    vertex 1769.5443819723598 221.51651115781434 1.9999999999999998
    vertex 1769.9184905146117 222.2779963633552 1.9999999999999998
  endloop
endfacet
facet normal 0.0 0.0 1.0
  outer loop
    vertex 1769.7520929767577 224.7598668488621 1.9999999999999998
    vertex 1769.9184905146117 222.2779963633552 1.9999999999999998
    vertex 1770.0260096422426 223.95688080912478 1.9999999999999998
  endloop
endfacet
facet normal 0.0 0.0 1.0
  outer loop
    vertex 1770.0260096422426 223.95688080912478 1.9999999999999998
    vertex 1769.9184905146117 222.2779963633552 1.9999999999999998
    vertex 1770.0827647436502 223.11036100539445 1.9999999999999998
  endloop
endfacet
facet normal 0.0 0.0 1.0
  outer loop
    vertex 1763.6528084629622 222.67926321046 1.9999999999999998
    vertex 1763.7603275905935 224.3581476562296 1.9999999999999998
    vertex 1763.5960533615546 223.52578301419032 1.9999999999999998
  endloop
endfacet
facet normal 0.0 0.0 1.0
  outer loop
    vertex 1763.7603275905935 224.3581476562296 1.9999999999999998
    vertex 1763.6528084629622 222.67926321046 1.9999999999999998
    vertex 1763.9267251284473 221.8762771707227 1.9999999999999998
  endloop
endfacet
facet normal 0.0 0.0 1.0
  outer loop
    vertex 1763.7603275905935 224.3581476562296 1.9999999999999998
    vertex 1763.9267251284473 221.8762771707227 1.9999999999999998
    vertex 1764.1344361328454 225.11963286177044 1.9999999999999998
  endloop
endfacet
facet normal 0.0 0.0 1.0
  outer loop
    vertex 1764.1344361328454 225.11963286177044 1.9999999999999998
    vertex 1763.9267251284473 221.8762771707227 1.9999999999999998
    vertex 1764.3991363899258 221.17154706658937 1.9999999999999998
  endloop
endfacet
facet normal 0.0 0.0 1.0
  outer loop
    vertex 1764.1344361328454 225.11963286177044 1.9999999999999998
    vertex 1764.3991363899258 221.17154706658937 1.9999999999999998
    vertex 1764.6928841093995 225.7583446724691 1.9999999999999998
  endloop
endfacet
facet normal 0.0 0.0 1.0
  outer loop
    vertex 1764.6928841093995 225.7583446724691 1.9999999999999998
    vertex 1764.3991363899258 221.17154706658937 1.9999999999999998
    vertex 1765.0378482006242 220.61309909003512 1.9999999999999998
  endloop
endfacet
facet normal 0.0 0.0 1.0
  outer loop
    vertex 1764.6928841093995 225.7583446724691 1.9999999999999998
    vertex 1765.0378482006242 220.61309909003512 1.9999999999999998
    vertex 1765.1394090526023 223.3180720097924 1.9999999999999998
  endloop
endfacet
facet normal 0.0 0.0 1.0
  outer loop
    vertex 1764.6928841093995 225.7583446724691 1.9999999999999998
    vertex 1765.1394090526023 223.3180720097924 1.9999999999999998
    vertex 1765.3976142135325 226.23075593394756 1.9999999999999998
  endloop
endfacet
facet normal 0.0 0.0 1.0
  outer loop
    vertex 1765.3976142135325 226.23075593394756 1.9999999999999998
    vertex 1765.1394090526023 223.3180720097924 1.9999999999999998
    vertex 1765.1973351479112 223.75806438646666 1.9999999999999998
  endloop
endfacet
facet normal 0.0 0.0 1.0
  outer loop
    vertex 1765.3976142135325 226.23075593394756 1.9999999999999998
    vertex 1765.1973351479112 223.75806438646666 1.9999999999999998
    vertex 1765.3671658661688 224.16807200979238 1.9999999999999998
  endloop
endfacet
facet normal 0.0 0.0 1.0
  outer loop
    vertex 1765.3976142135325 226.23075593394756 1.9999999999999998
    vertex 1765.3671658661688 224.16807200979238 1.9999999999999998
    vertex 1765.6373275245853 224.52015353780953 1.9999999999999998
  endloop
endfacet
facet normal 0.0 0.0 1.0
  outer loop
    vertex 1765.3976142135325 226.23075593394756 1.9999999999999998
    vertex 1765.6373275245853 224.52015353780953 1.9999999999999998
    vertex 1766.2006002532698 226.5046725994326 1.9999999999999998
  endloop
endfacet
facet normal 0.0 0.0 1.0
  outer loop
    vertex 1766.2006002532698 226.5046725994326 1.9999999999999998
    vertex 1765.6373275245853 224.52015353780953 1.9999999999999998
    vertex 1765.9894090526025 224.79031519622595 1.9999999999999998
  endloop
endfacet
facet normal 0.0 0.0 1.0
  outer loop
    vertex 1766.2006002532698 226.5046725994326 1.9999999999999998
    vertex 1765.9894090526025 224.79031519622595 1.9999999999999998
    vertex 1766.399416675928 224.9601459144838 1.9999999999999998
  endloop
endfacet
facet normal 0.0 0.0 1.0
  outer loop
    vertex 1766.2006002532698 226.5046725994326 1.9999999999999998
    vertex 1766.399416675928 224.9601459144838 1.9999999999999998
    vertex 1767.0471200570003 226.56142770084014 1.9999999999999998
  endloop
endfacet
facet normal 0.0 0.0 1.0
  outer loop
    vertex 1767.0471200570003 226.56142770084014 1.9999999999999998
    vertex 1766.399416675928 224.9601459144838 1.9999999999999998
    vertex 1766.8394090526026 225.0180720097924 1.9999999999999998
  endloop
endfacet
facet normal 0.0 0.0 1.0
  outer loop
    vertex 1767.0471200570003 226.56142770084014 1.9999999999999998
    vertex 1766.8394090526026 225.0180720097924 1.9999999999999998
    vertex 1767.2794014292767 224.9601459144838 1.9999999999999998
  endloop
endfacet
facet normal 0.0 0.0 1.0
  outer loop
    vertex 1767.0471200570003 226.56142770084014 1.9999999999999998
    vertex 1767.2794014292767 224.9601459144838 1.9999999999999998
    vertex 1767.8794846990395 226.3971534718015 1.9999999999999998
  endloop
endfacet
facet normal 0.0 0.0 1.0
  outer loop
    vertex 1767.8794846990395 226.3971534718015 1.9999999999999998
    vertex 1767.2794014292767 224.9601459144838 1.9999999999999998
    vertex 1767.6894090526025 224.79031519622595 1.9999999999999998
  endloop
endfacet
facet normal 0.0 0.0 1.0
  outer loop
    vertex 1767.8794846990395 226.3971534718015 1.9999999999999998
    vertex 1767.6894090526025 224.79031519622595 1.9999999999999998
    vertex 1768.0414905806194 224.52015353780953 1.9999999999999998
  endloop
endfacet
facet normal 0.0 0.0 1.0
  outer loop
    vertex 1767.8794846990395 226.3971534718015 1.9999999999999998
    vertex 1768.0414905806194 224.52015353780953 1.9999999999999998
    vertex 1768.6409699045805 226.02304492954966 1.9999999999999998
  endloop
endfacet
facet normal 0.0 0.0 1.0
  outer loop
    vertex 1768.6409699045805 226.02304492954966 1.9999999999999998
    vertex 1768.0414905806194 224.52015353780953 1.9999999999999998
    vertex 1768.311652239036 224.16807200979238 1.9999999999999998
  endloop
endfacet
facet normal 0.0 0.0 1.0
  outer loop
    vertex 1768.6409699045805 226.02304492954966 1.9999999999999998
    vertex 1768.311652239036 224.16807200979238 1.9999999999999998
    vertex 1768.4814829572938 223.7580643864667 1.9999999999999998
  endloop
endfacet
facet normal 0.0 0.0 1.0
  outer loop
    vertex 1768.6409699045805 226.02304492954966 1.9999999999999998
    vertex 1768.4814829572938 223.7580643864667 1.9999999999999998
    vertex 1768.5394090526027 223.3180720097924 1.9999999999999998
  endloop
endfacet
facet normal -0.9977600184563344 -0.06689503397125562 -0.0
  outer loop
    vertex 1763.5960533615546 223.52578301419032 1.9999999999999998
    vertex 1763.6528084629622 222.67926321046 0.0
    vertex 1763.6528084629622 222.67926321046 1.9999999999999998
  endloop
endfacet
facet normal -0.9977600184563344 -0.06689503397125562 -0.0
  outer loop
    vertex 1763.6528084629622 222.67926321046 0.0
    vertex 1763.5960533615546 223.52578301419032 1.9999999999999998
    vertex 1763.5960533615546 223.52578301419032 0.0
  endloop
endfacet
facet normal -0.9464484614510897 -0.32285493618166194 -0.0
  outer loop
    vertex 1763.6528084629622 222.67926321046 1.9999999999999998
    vertex 1763.9267251284473 221.8762771707227 0.0
    vertex 1763.9267251284473 221.8762771707227 1.9999999999999998
  endloop
endfacet
facet normal -0.9464484614510897 -0.32285493618166194 -0.0
  outer loop
    vertex 1763.9267251284473 221.8762771707227 0.0
    vertex 1763.6528084629622 222.67926321046 1.9999999999999998
    vertex 1763.6528084629622 222.67926321046 0.0
  endloop
endfacet
facet normal -0.9810758790801708 0.19362365425502662 0.0
  outer loop
    vertex 1763.7603275905935 224.3581476562296 1.9999999999999998
    vertex 1763.5960533615546 223.52578301419032 0.0
    vertex 1763.5960533615546 223.52578301419032 1.9999999999999998
  endloop
endfacet
facet normal -0.9810758790801708 0.19362365425502662 0.0
  outer loop
    vertex 1763.5960533615546 223.52578301419032 0.0
    vertex 1763.7603275905935 224.3581476562296 1.9999999999999998
    vertex 1763.7603275905935 224.3581476562296 0.0
  endloop
endfacet
facet normal -0.8306380058779874 -0.5568128080342986 -0.0
  outer loop
    vertex 1763.9267251284473 221.8762771707227 1.9999999999999998
    vertex 1764.3991363899258 221.17154706658937 0.0
    vertex 1764.3991363899258 221.17154706658937 1.9999999999999998
  endloop
endfacet
facet normal -0.8306380058779874 -0.5568128080342986 -0.0
  outer loop
    vertex 1764.3991363899258 221.17154706658937 0.0
    vertex 1763.9267251284473 221.8762771707227 1.9999999999999998
    vertex 1763.9267251284473 221.8762771707227 0.0
  endloop
endfacet
facet normal -0.4409472104220081 -0.8975330398492578 -0.0
  outer loop
    vertex 1765.7993334061653 220.2389905477833 1.9999999999999998
    vertex 1765.0378482006242 220.61309909003512 0.0
    vertex 1765.7993334061653 220.2389905477833 0.0
  endloop
endfacet
facet normal -0.4409472104220081 -0.8975330398492578 -0.0
  outer loop
    vertex 1765.0378482006242 220.61309909003512 0.0
    vertex 1765.7993334061653 220.2389905477833 1.9999999999999998
    vertex 1765.0378482006242 220.61309909003512 1.9999999999999998
  endloop
endfacet
facet normal -0.6582209428985206 -0.7528248071960584 -0.0
  outer loop
    vertex 1765.0378482006242 220.61309909003512 1.9999999999999998
    vertex 1764.3991363899258 221.17154706658937 0.0
    vertex 1765.0378482006242 220.61309909003512 0.0
  endloop
endfacet
facet normal -0.6582209428985206 -0.7528248071960584 -0.0
  outer loop
    vertex 1764.3991363899258 221.17154706658937 0.0
    vertex 1765.0378482006242 220.61309909003512 1.9999999999999998
    vertex 1764.3991363899258 221.17154706658937 1.9999999999999998
  endloop
endfacet
facet normal 0.9977600184563342 0.06689503397125894 0.0
  outer loop
    vertex 1770.0260096422426 223.95688080912478 0.0
    vertex 1770.0827647436502 223.11036100539445 1.9999999999999998
    vertex 1770.0827647436502 223.11036100539445 0.0
  endloop
endfacet
facet normal 0.9977600184563342 0.06689503397125894 0.0
  outer loop
    vertex 1770.0827647436502 223.11036100539445 1.9999999999999998
    vertex 1770.0260096422426 223.95688080912478 0.0
    vertex 1770.0260096422426 223.95688080912478 1.9999999999999998
  endloop
endfacet
facet normal 0.5568128080342879 -0.8306380058779947 0.0
  outer loop
    vertex 1768.9859339958055 220.87779934711568 1.9999999999999998
    vertex 1768.2812038916722 220.40538808563724 0.0
    vertex 1768.9859339958055 220.87779934711568 0.0
  endloop
endfacet
facet normal 0.5568128080342879 -0.8306380058779947 0.0
  outer loop
    vertex 1768.2812038916722 220.40538808563724 0.0
    vertex 1768.9859339958055 220.87779934711568 1.9999999999999998
    vertex 1768.2812038916722 220.40538808563724 1.9999999999999998
  endloop
endfacet
facet normal 0.9810758790801708 -0.19362365425502662 0.0
  outer loop
    vertex 1770.0827647436502 223.11036100539445 0.0
    vertex 1769.9184905146117 222.2779963633552 1.9999999999999998
    vertex 1769.9184905146117 222.2779963633552 0.0
  endloop
endfacet
facet normal 0.9810758790801708 -0.19362365425502662 0.0
  outer loop
    vertex 1769.9184905146117 222.2779963633552 1.9999999999999998
    vertex 1770.0827647436502 223.11036100539445 0.0
    vertex 1770.0827647436502 223.11036100539445 1.9999999999999998
  endloop
endfacet
facet normal 0.8975330398492448 -0.44094721042203494 0.0
  outer loop
    vertex 1769.9184905146117 222.2779963633552 0.0
    vertex 1769.5443819723598 221.51651115781434 1.9999999999999998
    vertex 1769.5443819723598 221.51651115781434 0.0
  endloop
endfacet
facet normal 0.8975330398492448 -0.44094721042203494 0.0
  outer loop
    vertex 1769.5443819723598 221.51651115781434 1.9999999999999998
    vertex 1769.9184905146117 222.2779963633552 0.0
    vertex 1769.9184905146117 222.2779963633552 1.9999999999999998
  endloop
endfacet
facet normal 0.7528248071960744 -0.6582209428985026 0.0
  outer loop
    vertex 1769.5443819723598 221.51651115781434 0.0
    vertex 1768.9859339958055 220.87779934711568 1.9999999999999998
    vertex 1768.9859339958055 220.87779934711568 0.0
  endloop
endfacet
facet normal 0.7528248071960744 -0.6582209428985026 0.0
  outer loop
    vertex 1768.9859339958055 220.87779934711568 1.9999999999999998
    vertex 1769.5443819723598 221.51651115781434 0.0
    vertex 1769.5443819723598 221.51651115781434 1.9999999999999998
  endloop
endfacet
facet normal 0.06689503397125277 -0.9977600184563347 0.0
  outer loop
    vertex 1767.478217851935 220.13147142015217 1.9999999999999998
    vertex 1766.6316980482045 220.07471631874463 0.0
    vertex 1767.478217851935 220.13147142015217 0.0
  endloop
endfacet
facet normal 0.06689503397125277 -0.9977600184563347 0.0
  outer loop
    vertex 1766.6316980482045 220.07471631874463 0.0
    vertex 1767.478217851935 220.13147142015217 1.9999999999999998
    vertex 1766.6316980482045 220.07471631874463 1.9999999999999998
  endloop
endfacet
facet normal -0.19362365425501715 -0.9810758790801728 -0.0
  outer loop
    vertex 1766.6316980482045 220.07471631874463 1.9999999999999998
    vertex 1765.7993334061653 220.2389905477833 0.0
    vertex 1766.6316980482045 220.07471631874463 0.0
  endloop
endfacet
facet normal -0.19362365425501715 -0.9810758790801728 -0.0
  outer loop
    vertex 1765.7993334061653 220.2389905477833 0.0
    vertex 1766.6316980482045 220.07471631874463 1.9999999999999998
    vertex 1765.7993334061653 220.2389905477833 1.9999999999999998
  endloop
endfacet
facet normal 0.322854936181665 -0.9464484614510887 0.0
  outer loop
    vertex 1768.2812038916722 220.40538808563724 1.9999999999999998
    vertex 1767.478217851935 220.13147142015217 0.0
    vertex 1768.2812038916722 220.40538808563724 0.0
  endloop
endfacet
facet normal 0.322854936181665 -0.9464484614510887 0.0
  outer loop
    vertex 1767.478217851935 220.13147142015217 0.0
    vertex 1768.2812038916722 220.40538808563724 1.9999999999999998
    vertex 1767.478217851935 220.13147142015217 1.9999999999999998
  endloop
endfacet
facet normal 0.6582209428985206 0.7528248071960584 0.0
  outer loop
    vertex 1768.6409699045805 226.02304492954966 1.9999999999999998
    vertex 1769.279681715279 225.4645969529954 0.0
    vertex 1768.6409699045805 226.02304492954966 0.0
  endloop
endfacet
facet normal 0.6582209428985206 0.7528248071960584 0.0
  outer loop
    vertex 1769.279681715279 225.4645969529954 0.0
    vertex 1768.6409699045805 226.02304492954966 1.9999999999999998
    vertex 1769.279681715279 225.4645969529954 1.9999999999999998
  endloop
endfacet
facet normal 0.1936236542550178 0.9810758790801727 0.0
  outer loop
    vertex 1767.0471200570003 226.56142770084014 1.9999999999999998
    vertex 1767.8794846990395 226.3971534718015 0.0
    vertex 1767.0471200570003 226.56142770084014 0.0
  endloop
endfacet
facet normal 0.1936236542550178 0.9810758790801727 0.0
  outer loop
    vertex 1767.8794846990395 226.3971534718015 0.0
    vertex 1767.0471200570003 226.56142770084014 1.9999999999999998
    vertex 1767.8794846990395 226.3971534718015 1.9999999999999998
  endloop
endfacet
facet normal 0.9464484614510909 0.32285493618165895 0.0
  outer loop
    vertex 1769.7520929767577 224.7598668488621 0.0
    vertex 1770.0260096422426 223.95688080912478 1.9999999999999998
    vertex 1770.0260096422426 223.95688080912478 0.0
  endloop
endfacet
facet normal 0.9464484614510909 0.32285493618165895 0.0
  outer loop
    vertex 1770.0260096422426 223.95688080912478 1.9999999999999998
    vertex 1769.7520929767577 224.7598668488621 0.0
    vertex 1769.7520929767577 224.7598668488621 1.9999999999999998
  endloop
endfacet
facet normal 0.44094721042200685 0.8975330398492586 0.0
  outer loop
    vertex 1767.8794846990395 226.3971534718015 1.9999999999999998
    vertex 1768.6409699045805 226.02304492954966 0.0
    vertex 1767.8794846990395 226.3971534718015 0.0
  endloop
endfacet
facet normal 0.44094721042200685 0.8975330398492586 0.0
  outer loop
    vertex 1768.6409699045805 226.02304492954966 0.0
    vertex 1767.8794846990395 226.3971534718015 1.9999999999999998
    vertex 1768.6409699045805 226.02304492954966 1.9999999999999998
  endloop
endfacet
facet normal 0.8306380058779874 0.5568128080342986 0.0
  outer loop
    vertex 1769.279681715279 225.4645969529954 0.0
    vertex 1769.7520929767577 224.7598668488621 1.9999999999999998
    vertex 1769.7520929767577 224.7598668488621 0.0
  endloop
endfacet
facet normal 0.8306380058779874 0.5568128080342986 0.0
  outer loop
    vertex 1769.7520929767577 224.7598668488621 1.9999999999999998
    vertex 1769.279681715279 225.4645969529954 0.0
    vertex 1769.279681715279 225.4645969529954 1.9999999999999998
  endloop
endfacet
facet normal -0.322854936181664 0.9464484614510892 0.0
  outer loop
    vertex 1765.3976142135325 226.23075593394756 1.9999999999999998
    vertex 1766.2006002532698 226.5046725994326 0.0
    vertex 1765.3976142135325 226.23075593394756 0.0
  endloop
endfacet
facet normal -0.322854936181664 0.9464484614510892 0.0
  outer loop
    vertex 1766.2006002532698 226.5046725994326 0.0
    vertex 1765.3976142135325 226.23075593394756 1.9999999999999998
    vertex 1766.2006002532698 226.5046725994326 1.9999999999999998
  endloop
endfacet
facet normal -0.7528248071960744 0.6582209428985026 0.0
  outer loop
    vertex 1764.6928841093995 225.7583446724691 1.9999999999999998
    vertex 1764.1344361328454 225.11963286177044 0.0
    vertex 1764.1344361328454 225.11963286177044 1.9999999999999998
  endloop
endfacet
facet normal -0.7528248071960744 0.6582209428985026 0.0
  outer loop
    vertex 1764.1344361328454 225.11963286177044 0.0
    vertex 1764.6928841093995 225.7583446724691 1.9999999999999998
    vertex 1764.6928841093995 225.7583446724691 0.0
  endloop
endfacet
facet normal -0.8975330398492434 0.4409472104220375 0.0
  outer loop
    vertex 1764.1344361328454 225.11963286177044 1.9999999999999998
    vertex 1763.7603275905935 224.3581476562296 0.0
    vertex 1763.7603275905935 224.3581476562296 1.9999999999999998
  endloop
endfacet
facet normal -0.8975330398492434 0.4409472104220375 0.0
  outer loop
    vertex 1763.7603275905935 224.3581476562296 0.0
    vertex 1764.1344361328454 225.11963286177044 1.9999999999999998
    vertex 1764.1344361328454 225.11963286177044 0.0
  endloop
endfacet
facet normal -0.5568128080342909 0.8306380058779925 0.0
  outer loop
    vertex 1764.6928841093995 225.7583446724691 1.9999999999999998
    vertex 1765.3976142135325 226.23075593394756 0.0
    vertex 1764.6928841093995 225.7583446724691 0.0
  endloop
endfacet
facet normal -0.5568128080342909 0.8306380058779925 0.0
  outer loop
    vertex 1765.3976142135325 226.23075593394756 0.0
    vertex 1764.6928841093995 225.7583446724691 1.9999999999999998
    vertex 1765.3976142135325 226.23075593394756 1.9999999999999998
  endloop
endfacet
facet normal -0.06689503397125277 0.9977600184563347 0.0
  outer loop
    vertex 1766.2006002532698 226.5046725994326 1.9999999999999998
    vertex 1767.0471200570003 226.56142770084014 0.0
    vertex 1766.2006002532698 226.5046725994326 0.0
  endloop
endfacet
facet normal -0.06689503397125277 0.9977600184563347 0.0
  outer loop
    vertex 1767.0471200570003 226.56142770084014 0.0
    vertex 1766.2006002532698 226.5046725994326 1.9999999999999998
    vertex 1767.0471200570003 226.56142770084014 1.9999999999999998
  endloop
endfacet
endsolid 280 EA Oct 23
