solid 280 EA Oct 23
facet normal 1.0 -5.1514348342607263e-14 9.096666072734777e-16
  outer loop
    vertex 1946.5494733852022 292.5262970485588 -0.9328581736415656
    vertex 1946.5494733852017 287.0262970485588 2.720475159691778
    vertex 1946.5494733852017 287.0262970485588 -0.9328581736415671
  endloop
endfacet
facet normal 1.0 -5.1514348342607263e-14 9.096666072734777e-16
  outer loop
    vertex 1946.5494733852017 287.0262970485588 2.720475159691778
    vertex 1946.5494733852022 292.5262970485588 -0.9328581736415656
    vertex 1946.5494733852022 292.5262970485588 -0.21285817364156567
  endloop
endfacet
facet normal 2.383758743579631e-14 0.47058823529411753 0.8823529411764707
  outer loop
    vertex 1946.5494733852017 287.0262970485588 2.720475159691778
    vertex 1939.549473385202 292.5262970485591 -0.2128581736415664
    vertex 1939.5494733852017 287.0262970485591 2.720475159691772
  endloop
endfacet
facet normal 2.383758743579631e-14 0.47058823529411753 0.8823529411764707
  outer loop
    vertex 1939.549473385202 292.5262970485591 -0.2128581736415664
    vertex 1946.5494733852017 287.0262970485588 2.720475159691778
    vertex 1946.5494733852022 292.5262970485588 -0.21285817364156567
  endloop
endfacet
facet normal -5.1514348342607263e-14 -1.0 -1.5381635359352361e-15
  outer loop
    vertex 1946.5494733852017 287.0262970485588 -0.9328581736415671
    vertex 1939.5494733852017 287.0262970485591 2.720475159691772
    vertex 1939.5494733852017 287.0262970485591 -0.9328581736415734
  endloop
endfacet
facet normal -5.1514348342607263e-14 -1.0 -1.5381635359352361e-15
  outer loop
    vertex 1939.5494733852017 287.0262970485591 2.720475159691772
    vertex 1946.5494733852017 287.0262970485588 -0.9328581736415671
    vertex 1946.5494733852017 287.0262970485588 2.720475159691778
  endloop
endfacet
facet normal 4.548333036367589e-16 7.69081767967606e-16 -1.0
  outer loop
    vertex 1939.549473385202 292.5262970485591 -0.9328581736415663
    vertex 1946.5494733852017 287.0262970485588 -0.9328581736415671
    vertex 1939.5494733852017 287.0262970485591 -0.9328581736415734
  endloop
endfacet
facet normal 4.548333036367589e-16 7.69081767967606e-16 -1.0
  outer loop
    vertex 1946.5494733852017 287.0262970485588 -0.9328581736415671
    vertex 1939.549473385202 292.5262970485591 -0.9328581736415663
    vertex 1946.5494733852022 292.5262970485588 -0.9328581736415656
  endloop
endfacet
facet normal 5.1514348342607263e-14 1.0 1.260607779778947e-15
  outer loop
    vertex 1939.549473385202 292.5262970485591 -0.2128581736415664
    vertex 1946.5494733852022 292.5262970485588 -0.9328581736415656
    vertex 1939.549473385202 292.5262970485591 -0.9328581736415663
  endloop
endfacet
facet normal 5.1514348342607263e-14 1.0 1.260607779778947e-15
  outer loop
    vertex 1946.5494733852022 292.5262970485588 -0.9328581736415656
    vertex 1939.549473385202 292.5262970485591 -0.2128581736415664
    vertex 1946.5494733852022 292.5262970485588 -0.21285817364156567
  endloop
endfacet
facet normal -1.0 5.1514348342607263e-14 -9.096666072734777e-16
  outer loop
    vertex 1939.549473385202 292.5262970485591 -0.2128581736415664
    vertex 1939.5494733852017 287.0262970485591 -0.9328581736415734
    vertex 1939.5494733852017 287.0262970485591 2.720475159691772
  endloop
endfacet
facet normal -1.0 5.1514348342607263e-14 -9.096666072734777e-16
  outer loop
    vertex 1939.5494733852017 287.0262970485591 -0.9328581736415734
    vertex 1939.549473385202 292.5262970485591 -0.2128581736415664
    vertex 1939.549473385202 292.5262970485591 -0.9328581736415663
  endloop
endfacet
endsolid 280 EA Oct 23
