solid 280 EA Oct 23
facet normal 0.0 -1.0 0.0
  outer loop
    vertex 1901.5403590618885 372.59983597344444 12.5
    vertex 1899.540359061887 372.59983597344444 10.499999999999998
    vertex 1901.5403590618885 372.59983597344444 10.499999999999998
  endloop
endfacet
facet normal 0.0 -1.0 0.0
  outer loop
    vertex 1899.540359061887 372.59983597344444 10.499999999999998
    vertex 1895.540359061887 372.59983597344444 6.899999999999999
    vertex 1899.540359061887 372.59983597344444 6.899999999999999
  endloop
endfacet
facet normal 0.0 -1.0 0.0
  outer loop
    vertex 1895.540359061887 372.59983597344444 6.899999999999999
    vertex 1899.540359061887 372.59983597344444 10.499999999999998
    vertex 1895.540359061887 372.59983597344444 12.5
  endloop
endfacet
facet normal 0.0 -1.0 0.0
  outer loop
    vertex 1895.540359061887 372.59983597344444 12.5
    vertex 1899.540359061887 372.59983597344444 10.499999999999998
    vertex 1901.5403590618885 372.59983597344444 12.5
  endloop
endfacet
facet normal 1.0 8.559516892143945e-14 -2.16399821525245e-14
  outer loop
    vertex 1901.5403590618885 363.89983597344445 0.0
    vertex 1901.5403590618885 364.89983597344445 10.499999999999998
    vertex 1901.5403590618885 363.89983597344445 12.5
  endloop
endfacet
facet normal 1.0 8.559516892143945e-14 -2.16399821525245e-14
  outer loop
    vertex 1901.5403590618885 364.89983597344445 10.499999999999998
    vertex 1901.5403590618885 363.89983597344445 0.0
    vertex 1901.5403590618885 367.1498359734445 6.899999999999999
  endloop
endfacet
facet normal 1.0 8.559516892143945e-14 -2.16399821525245e-14
  outer loop
    vertex 1901.5403590618885 367.1498359734445 6.899999999999999
    vertex 1901.5403590618885 363.89983597344445 0.0
    vertex 1901.540359061887 373.5998359734445 -1.4099832412739487e-15
  endloop
endfacet
facet normal 1.0 8.559516892143945e-14 -2.16399821525245e-14
  outer loop
    vertex 1901.5403590618885 367.1498359734445 6.899999999999999
    vertex 1901.540359061887 373.5998359734445 -1.4099832412739487e-15
    vertex 1901.5403590618885 370.3498359734445 6.899999999999999
  endloop
endfacet
facet normal 1.0 8.559516892143945e-14 -2.16399821525245e-14
  outer loop
    vertex 1901.5403590618885 370.3498359734445 6.899999999999999
    vertex 1901.540359061887 373.5998359734445 -1.4099832412739487e-15
    vertex 1901.5403590618885 370.3498359734445 10.499999999999998
  endloop
endfacet
facet normal 1.0 8.559516892143945e-14 -2.16399821525245e-14
  outer loop
    vertex 1901.5403590618885 370.3498359734445 10.499999999999998
    vertex 1901.540359061887 373.5998359734445 -1.4099832412739487e-15
    vertex 1901.5403590618885 372.59983597344444 10.499999999999998
  endloop
endfacet
facet normal 1.0 8.559516892143945e-14 -2.16399821525245e-14
  outer loop
    vertex 1901.5403590618885 372.59983597344444 10.499999999999998
    vertex 1901.540359061887 373.5998359734445 -1.4099832412739487e-15
    vertex 1901.5403590618885 372.59983597344444 12.5
  endloop
endfacet
facet normal 1.0 8.559516892143945e-14 -2.16399821525245e-14
  outer loop
    vertex 1901.5403590618885 372.59983597344444 12.5
    vertex 1901.540359061887 373.5998359734445 -1.4099832412739487e-15
    vertex 1901.540359061887 373.5998359734445 12.5
  endloop
endfacet
facet normal 1.0 8.559516892143945e-14 -2.16399821525245e-14
  outer loop
    vertex 1901.5403590618885 367.1498359734445 10.499999999999998
    vertex 1901.5403590618885 364.89983597344445 10.499999999999998
    vertex 1901.5403590618885 367.1498359734445 6.899999999999999
  endloop
endfacet
facet normal 1.0 8.559516892143945e-14 -2.16399821525245e-14
  outer loop
    vertex 1901.5403590618885 364.89983597344445 12.5
    vertex 1901.5403590618885 363.89983597344445 12.5
    vertex 1901.5403590618885 364.89983597344445 10.499999999999998
  endloop
endfacet
facet normal -2.3602022457967066e-17 -4.4180394590530667e-17 -1.0
  outer loop
    vertex 1895.540359061887 375.9998359734445 -1.4099832412739487e-15
    vertex 1891.5403590618869 361.4998359734445 0.0
    vertex 1891.5403590618869 375.9998359734445 0.0
  endloop
endfacet
facet normal -2.3602022457967066e-17 -4.4180394590530667e-17 -1.0
  outer loop
    vertex 1891.5403590618869 361.4998359734445 0.0
    vertex 1895.540359061887 375.9998359734445 -1.4099832412739487e-15
    vertex 1895.540359061887 361.4998359734445 0.0
  endloop
endfacet
facet normal -2.3602022457967066e-17 -4.4180394590530667e-17 -1.0
  outer loop
    vertex 1895.540359061887 361.4998359734445 0.0
    vertex 1895.540359061887 375.9998359734445 -1.4099832412739487e-15
    vertex 1901.540359061887 373.5998359734445 -1.4099832412739487e-15
  endloop
endfacet
facet normal -2.3602022457967066e-17 -4.4180394590530667e-17 -1.0
  outer loop
    vertex 1895.540359061887 361.4998359734445 0.0
    vertex 1901.540359061887 373.5998359734445 -1.4099832412739487e-15
    vertex 1901.5403590618885 363.89983597344445 0.0
  endloop
endfacet
facet normal 0.0 0.0 1.0
  outer loop
    vertex 1901.5403590618885 370.3498359734445 10.499999999999998
    vertex 1899.540359061887 372.59983597344444 10.499999999999998
    vertex 1899.540359061887 370.3498359734445 10.499999999999998
  endloop
endfacet
facet normal 0.0 0.0 1.0
  outer loop
    vertex 1899.540359061887 372.59983597344444 10.499999999999998
    vertex 1901.5403590618885 370.3498359734445 10.499999999999998
    vertex 1901.5403590618885 372.59983597344444 10.499999999999998
  endloop
endfacet
facet normal 0.0 0.0 1.0
  outer loop
    vertex 1901.5403590618885 364.89983597344445 10.499999999999998
    vertex 1899.540359061887 367.1498359734445 10.499999999999998
    vertex 1899.540359061887 364.89983597344445 10.499999999999998
  endloop
endfacet
facet normal 0.0 0.0 1.0
  outer loop
    vertex 1899.540359061887 367.1498359734445 10.499999999999998
    vertex 1901.5403590618885 364.89983597344445 10.499999999999998
    vertex 1901.5403590618885 367.1498359734445 10.499999999999998
  endloop
endfacet
facet normal 1.0 0.0 0.0
  outer loop
    vertex 1895.540359061887 372.59983597344444 6.899999999999999
    vertex 1895.540359061887 364.89983597344445 12.5
    vertex 1895.540359061887 364.89983597344445 6.899999999999999
  endloop
endfacet
facet normal 1.0 0.0 0.0
  outer loop
    vertex 1895.540359061887 364.89983597344445 12.5
    vertex 1895.540359061887 372.59983597344444 6.899999999999999
    vertex 1895.540359061887 372.59983597344444 12.5
  endloop
endfacet
facet normal -1.0 0.0 0.0
  outer loop
    vertex 1891.5403590618869 375.9998359734445 12.5
    vertex 1891.5403590618869 361.4998359734445 0.0
    vertex 1891.5403590618869 361.4998359734445 12.5
  endloop
endfacet
facet normal -1.0 0.0 0.0
  outer loop
    vertex 1891.5403590618869 361.4998359734445 0.0
    vertex 1891.5403590618869 375.9998359734445 12.5
    vertex 1891.5403590618869 375.9998359734445 0.0
  endloop
endfacet
facet normal 0.0 1.0 0.0
  outer loop
    vertex 1895.540359061887 364.89983597344445 12.5
    vertex 1899.540359061887 364.89983597344445 6.899999999999999
    vertex 1895.540359061887 364.89983597344445 6.899999999999999
  endloop
endfacet
facet normal 0.0 1.0 0.0
  outer loop
    vertex 1899.540359061887 364.89983597344445 6.899999999999999
    vertex 1895.540359061887 364.89983597344445 12.5
    vertex 1899.540359061887 364.89983597344445 10.499999999999998
  endloop
endfacet
facet normal 0.0 1.0 0.0
  outer loop
    vertex 1899.540359061887 364.89983597344445 10.499999999999998
    vertex 1895.540359061887 364.89983597344445 12.5
    vertex 1901.5403590618885 364.89983597344445 10.499999999999998
  endloop
endfacet
facet normal 0.0 1.0 0.0
  outer loop
    vertex 1901.5403590618885 364.89983597344445 10.499999999999998
    vertex 1895.540359061887 364.89983597344445 12.5
    vertex 1901.5403590618885 364.89983597344445 12.5
  endloop
endfacet
facet normal -1.0 0.0 0.0
  outer loop
    vertex 1899.540359061887 372.59983597344444 10.499999999999998
    vertex 1899.540359061887 370.3498359734445 6.899999999999999
    vertex 1899.540359061887 370.3498359734445 10.499999999999998
  endloop
endfacet
facet normal -1.0 0.0 0.0
  outer loop
    vertex 1899.540359061887 370.3498359734445 6.899999999999999
    vertex 1899.540359061887 372.59983597344444 10.499999999999998
    vertex 1899.540359061887 372.59983597344444 6.899999999999999
  endloop
endfacet
facet normal -1.0 0.0 0.0
  outer loop
    vertex 1899.540359061887 367.1498359734445 10.499999999999998
    vertex 1899.540359061887 364.89983597344445 6.899999999999999
    vertex 1899.540359061887 364.89983597344445 10.499999999999998
  endloop
endfacet
facet normal -1.0 0.0 0.0
  outer loop
    vertex 1899.540359061887 364.89983597344445 6.899999999999999
    vertex 1899.540359061887 367.1498359734445 10.499999999999998
    vertex 1899.540359061887 367.1498359734445 6.899999999999999
  endloop
endfacet
facet normal 0.0 1.0 0.0
  outer loop
    vertex 1891.5403590618869 375.9998359734445 0.0
    vertex 1895.540359061887 375.9998359734445 12.5
    vertex 1895.540359061887 375.9998359734445 -1.4099832412739487e-15
  endloop
endfacet
facet normal 0.0 1.0 0.0
  outer loop
    vertex 1895.540359061887 375.9998359734445 12.5
    vertex 1891.5403590618869 375.9998359734445 0.0
    vertex 1891.5403590618869 375.9998359734445 12.5
  endloop
endfacet
facet normal 0.0 -1.0 0.0
  outer loop
    vertex 1895.540359061887 361.4998359734445 12.5
    vertex 1891.5403590618869 361.4998359734445 0.0
    vertex 1895.540359061887 361.4998359734445 0.0
  endloop
endfacet
facet normal 0.0 -1.0 0.0
  outer loop
    vertex 1891.5403590618869 361.4998359734445 0.0
    vertex 1895.540359061887 361.4998359734445 12.5
    vertex 1891.5403590618869 361.4998359734445 12.5
  endloop
endfacet
facet normal 0.0 0.0 1.0
  outer loop
    vertex 1901.5403590618885 367.1498359734445 6.899999999999999
    vertex 1899.540359061887 370.3498359734445 6.899999999999999
    vertex 1899.540359061887 367.1498359734445 6.899999999999999
  endloop
endfacet
facet normal 0.0 0.0 1.0
  outer loop
    vertex 1899.540359061887 370.3498359734445 6.899999999999999
    vertex 1901.5403590618885 367.1498359734445 6.899999999999999
    vertex 1901.5403590618885 370.3498359734445 6.899999999999999
  endloop
endfacet
facet normal 0.0 0.0 1.0
  outer loop
    vertex 1899.540359061887 364.89983597344445 6.899999999999999
    vertex 1895.540359061887 372.59983597344444 6.899999999999999
    vertex 1895.540359061887 364.89983597344445 6.899999999999999
  endloop
endfacet
facet normal 0.0 0.0 1.0
  outer loop
    vertex 1895.540359061887 372.59983597344444 6.899999999999999
    vertex 1899.540359061887 364.89983597344445 6.899999999999999
    vertex 1899.540359061887 372.59983597344444 6.899999999999999
  endloop
endfacet
facet normal 0.0 0.0 1.0
  outer loop
    vertex 1899.540359061887 372.59983597344444 6.899999999999999
    vertex 1899.540359061887 364.89983597344445 6.899999999999999
    vertex 1899.540359061887 367.1498359734445 6.899999999999999
  endloop
endfacet
facet normal 0.0 0.0 1.0
  outer loop
    vertex 1899.540359061887 372.59983597344444 6.899999999999999
    vertex 1899.540359061887 367.1498359734445 6.899999999999999
    vertex 1899.540359061887 370.3498359734445 6.899999999999999
  endloop
endfacet
facet normal 0.0 1.0 0.0
  outer loop
    vertex 1899.540359061887 367.1498359734445 10.499999999999998
    vertex 1901.5403590618885 367.1498359734445 6.899999999999999
    vertex 1899.540359061887 367.1498359734445 6.899999999999999
  endloop
endfacet
facet normal 0.0 1.0 0.0
  outer loop
    vertex 1901.5403590618885 367.1498359734445 6.899999999999999
    vertex 1899.540359061887 367.1498359734445 10.499999999999998
    vertex 1901.5403590618885 367.1498359734445 10.499999999999998
  endloop
endfacet
facet normal -0.0 -1.0 -0.0
  outer loop
    vertex 1901.5403590618885 370.3498359734445 10.499999999999998
    vertex 1899.540359061887 370.3498359734445 6.899999999999999
    vertex 1901.5403590618885 370.3498359734445 6.899999999999999
  endloop
endfacet
facet normal -0.0 -1.0 -0.0
  outer loop
    vertex 1899.540359061887 370.3498359734445 6.899999999999999
    vertex 1901.5403590618885 370.3498359734445 10.499999999999998
    vertex 1899.540359061887 370.3498359734445 10.499999999999998
  endloop
endfacet
facet normal 0.0 0.0 1.0
  outer loop
    vertex 1901.5403590618885 363.89983597344445 12.5
    vertex 1895.540359061887 364.89983597344445 12.5
    vertex 1895.540359061887 361.4998359734445 12.5
  endloop
endfacet
facet normal 0.0 0.0 1.0
  outer loop
    vertex 1895.540359061887 364.89983597344445 12.5
    vertex 1901.5403590618885 363.89983597344445 12.5
    vertex 1901.5403590618885 364.89983597344445 12.5
  endloop
endfacet
facet normal 0.0 0.0 1.0
  outer loop
    vertex 1895.540359061887 361.4998359734445 12.5
    vertex 1891.5403590618869 375.9998359734445 12.5
    vertex 1891.5403590618869 361.4998359734445 12.5
  endloop
endfacet
facet normal 0.0 0.0 1.0
  outer loop
    vertex 1891.5403590618869 375.9998359734445 12.5
    vertex 1895.540359061887 361.4998359734445 12.5
    vertex 1895.540359061887 375.9998359734445 12.5
  endloop
endfacet
facet normal 0.0 0.0 1.0
  outer loop
    vertex 1895.540359061887 375.9998359734445 12.5
    vertex 1895.540359061887 361.4998359734445 12.5
    vertex 1895.540359061887 364.89983597344445 12.5
  endloop
endfacet
facet normal 0.0 0.0 1.0
  outer loop
    vertex 1895.540359061887 375.9998359734445 12.5
    vertex 1895.540359061887 364.89983597344445 12.5
    vertex 1895.540359061887 372.59983597344444 12.5
  endloop
endfacet
facet normal 0.0 0.0 1.0
  outer loop
    vertex 1895.540359061887 375.9998359734445 12.5
    vertex 1895.540359061887 372.59983597344444 12.5
    vertex 1901.5403590618885 372.59983597344444 12.5
  endloop
endfacet
facet normal 0.0 0.0 1.0
  outer loop
    vertex 1895.540359061887 375.9998359734445 12.5
    vertex 1901.5403590618885 372.59983597344444 12.5
    vertex 1901.540359061887 373.5998359734445 12.5
  endloop
endfacet
facet normal 0.37139067635409895 0.9284766908852613 0.0
  outer loop
    vertex 1895.540359061887 375.9998359734445 12.5
    vertex 1901.540359061887 373.5998359734445 -1.4099832412739487e-15
    vertex 1895.540359061887 375.9998359734445 -1.4099832412739487e-15
  endloop
endfacet
facet normal 0.37139067635409895 0.9284766908852613 0.0
  outer loop
    vertex 1901.540359061887 373.5998359734445 -1.4099832412739487e-15
    vertex 1895.540359061887 375.9998359734445 12.5
    vertex 1901.540359061887 373.5998359734445 12.5
  endloop
endfacet
facet normal 0.3713906763540219 -0.928476690885292 0.0
  outer loop
    vertex 1901.5403590618885 363.89983597344445 12.5
    vertex 1895.540359061887 361.4998359734445 0.0
    vertex 1901.5403590618885 363.89983597344445 0.0
  endloop
endfacet
facet normal 0.3713906763540219 -0.928476690885292 0.0
  outer loop
    vertex 1895.540359061887 361.4998359734445 0.0
    vertex 1901.5403590618885 363.89983597344445 12.5
    vertex 1895.540359061887 361.4998359734445 12.5
  endloop
endfacet
endsolid 280 EA Oct 23
