solid 280 EA Oct 23
facet normal 0.0 0.0 -1.0
  outer loop
    vertex 2083.5294532486987 468.0546426098284 14.999999999999911
    vertex 2075.5294532486987 466.0546426098284 14.999999999999911
    vertex 2075.5294532486987 468.0546426098284 14.999999999999911
  endloop
endfacet
facet normal 0.0 0.0 -1.0
  outer loop
    vertex 2075.5294532486987 466.0546426098284 14.999999999999911
    vertex 2083.5294532486987 468.0546426098284 14.999999999999911
    vertex 2083.5294532486987 466.0546426098284 14.999999999999911
  endloop
endfacet
facet normal 1.0 0.0 0.0
  outer loop
    vertex 2060.0294532486982 474.5546426098285 24.999999999999908
    vertex 2060.0294532486982 470.5546426098285 24.999999999999908
    vertex 2060.0294532486982 474.5546426098285 19.99999999999991
  endloop
endfacet
facet normal 1.0 0.0 0.0
  outer loop
    vertex 2060.0294532486982 478.5546426098285 -9.023892744153272e-14
    vertex 2060.0294532486982 470.5546426098285 14.999999999999911
    vertex 2060.0294532486982 470.5546426098285 -9.023892744153272e-14
  endloop
endfacet
facet normal 1.0 0.0 0.0
  outer loop
    vertex 2060.0294532486982 470.5546426098285 14.999999999999911
    vertex 2060.0294532486982 478.5546426098285 -9.023892744153272e-14
    vertex 2060.0294532486982 470.5546426098285 20.0000000000002
  endloop
endfacet
facet normal 1.0 0.0 0.0
  outer loop
    vertex 2060.0294532486982 470.5546426098285 20.0000000000002
    vertex 2060.0294532486982 478.5546426098285 -9.023892744153272e-14
    vertex 2060.0294532486982 470.5546426098285 24.999999999999908
  endloop
endfacet
facet normal 1.0 0.0 0.0
  outer loop
    vertex 2060.0294532486982 470.5546426098285 24.999999999999908
    vertex 2060.0294532486982 478.5546426098285 -9.023892744153272e-14
    vertex 2060.0294532486982 474.5546426098285 19.99999999999991
  endloop
endfacet
facet normal 1.0 0.0 0.0
  outer loop
    vertex 2060.0294532486982 474.5546426098285 19.99999999999991
    vertex 2060.0294532486982 478.5546426098285 -9.023892744153272e-14
    vertex 2060.0294532486982 478.5546426098285 19.99999999999991
  endloop
endfacet
facet normal -0.7071067811865429 -5.507251632056192e-20 0.7071067811865522
  outer loop
    vertex 2077.029453248699 456.0546426098284 24.999999999999908
    vertex 2075.5294532486987 470.5529916098284 23.499999999999908
    vertex 2075.5294532486987 456.0546426098284 23.499999999999908
  endloop
endfacet
facet normal -0.7071067811865429 -5.507251632056192e-20 0.7071067811865522
  outer loop
    vertex 2075.5294532486987 470.5529916098284 23.499999999999908
    vertex 2077.029453248699 456.0546426098284 24.999999999999908
    vertex 2077.029453248699 470.5546426098285 24.999999999999908
  endloop
endfacet
facet normal -1.0 0.0 0.0
  outer loop
    vertex 2078.0294532486982 474.5546426098285 24.999999999999908
    vertex 2078.0294532486982 470.5546426098285 -9.023892744153272e-14
    vertex 2078.0294532486982 470.5546426098285 24.999999999999908
  endloop
endfacet
facet normal -1.0 0.0 0.0
  outer loop
    vertex 2078.0294532486982 470.5546426098285 -9.023892744153272e-14
    vertex 2078.0294532486982 474.5546426098285 24.999999999999908
    vertex 2078.0294532486982 474.5546426098285 19.99999999999991
  endloop
endfacet
facet normal -1.0 0.0 0.0
  outer loop
    vertex 2078.0294532486982 470.5546426098285 -9.023892744153272e-14
    vertex 2078.0294532486982 474.5546426098285 19.99999999999991
    vertex 2078.0294532486982 478.5546426098285 -9.023892744153272e-14
  endloop
endfacet
facet normal -1.0 0.0 0.0
  outer loop
    vertex 2078.0294532486982 478.5546426098285 -9.023892744153272e-14
    vertex 2078.0294532486982 474.5546426098285 19.99999999999991
    vertex 2078.0294532486982 478.5546426098285 19.99999999999991
  endloop
endfacet
facet normal -1.0 0.0 0.0
  outer loop
    vertex 2078.0294532486982 481.0546426098284 24.999999999999908
    vertex 2078.0294532486982 474.5546426098285 19.99999999999991
    vertex 2078.0294532486982 474.5546426098285 24.999999999999908
  endloop
endfacet
facet normal -1.0 0.0 0.0
  outer loop
    vertex 2078.0294532486982 474.5546426098285 19.99999999999991
    vertex 2078.0294532486982 481.0546426098284 24.999999999999908
    vertex 2078.0294532486982 478.5546426098285 19.99999999999991
  endloop
endfacet
facet normal -1.0 0.0 0.0
  outer loop
    vertex 2078.0294532486982 478.5546426098285 19.99999999999991
    vertex 2078.0294532486982 481.0546426098284 24.999999999999908
    vertex 2078.0294532486982 481.0546426098284 19.99999999999991
  endloop
endfacet
facet normal 1.0 0.0 0.0
  outer loop
    vertex 2060.0294532486982 478.5546426098285 19.99999999999991
    vertex 2060.0294532486982 474.5546426098285 24.999999999999908
    vertex 2060.0294532486982 474.5546426098285 19.99999999999991
  endloop
endfacet
facet normal 1.0 0.0 0.0
  outer loop
    vertex 2060.0294532486982 474.5546426098285 24.999999999999908
    vertex 2060.0294532486982 478.5546426098285 19.99999999999991
    vertex 2060.0294532486982 481.0546426098284 24.999999999999908
  endloop
endfacet
facet normal 1.0 0.0 0.0
  outer loop
    vertex 2060.0294532486982 481.0546426098284 24.999999999999908
    vertex 2060.0294532486982 478.5546426098285 19.99999999999991
    vertex 2060.0294532486982 481.0546426098284 19.99999999999991
  endloop
endfacet
facet normal 0.0 0.0 1.0
  outer loop
    vertex 2078.0294532486982 478.5546426098285 19.99999999999991
    vertex 2060.0294532486982 481.0546426098284 19.99999999999991
    vertex 2060.0294532486982 478.5546426098285 19.99999999999991
  endloop
endfacet
facet normal 0.0 0.0 1.0
  outer loop
    vertex 2060.0294532486982 481.0546426098284 19.99999999999991
    vertex 2078.0294532486982 478.5546426098285 19.99999999999991
    vertex 2078.0294532486982 481.0546426098284 19.99999999999991
  endloop
endfacet
facet normal 0.0 0.0 1.0
  outer loop
    vertex 2060.0294532486982 470.5546426098285 24.999999999999908
    vertex 2057.5294532486982 481.0546426098284 24.999999999999908
    vertex 2057.5294532486982 470.5546426098285 24.999999999999908
  endloop
endfacet
facet normal 0.0 0.0 1.0
  outer loop
    vertex 2057.5294532486982 481.0546426098284 24.999999999999908
    vertex 2060.0294532486982 470.5546426098285 24.999999999999908
    vertex 2060.0294532486982 481.0546426098284 24.999999999999908
  endloop
endfacet
facet normal 0.0 0.0 1.0
  outer loop
    vertex 2060.0294532486982 481.0546426098284 24.999999999999908
    vertex 2060.0294532486982 470.5546426098285 24.999999999999908
    vertex 2060.0294532486982 474.5546426098285 24.999999999999908
  endloop
endfacet
facet normal 1.0 0.0 0.0
  outer loop
    vertex 2083.5294532486987 481.0546426098284 -9.023892744153272e-14
    vertex 2083.5294532486987 468.0546426098284 14.999999999999911
    vertex 2083.5294532486987 468.0546426098284 -9.023892744153272e-14
  endloop
endfacet
facet normal 1.0 0.0 0.0
  outer loop
    vertex 2083.5294532486987 466.0546426098284 14.999999999999911
    vertex 2083.5294532486987 456.0546426098284 24.999999999999908
    vertex 2083.5294532486987 456.0546426098284 20.99999999999991
  endloop
endfacet
facet normal 1.0 0.0 0.0
  outer loop
    vertex 2083.5294532486987 456.0546426098284 24.999999999999908
    vertex 2083.5294532486987 466.0546426098284 14.999999999999911
    vertex 2083.5294532486987 481.0546426098284 24.999999999999908
  endloop
endfacet
facet normal 1.0 0.0 0.0
  outer loop
    vertex 2083.5294532486987 481.0546426098284 24.999999999999908
    vertex 2083.5294532486987 466.0546426098284 14.999999999999911
    vertex 2083.5294532486987 468.0546426098284 14.999999999999911
  endloop
endfacet
facet normal 1.0 0.0 0.0
  outer loop
    vertex 2083.5294532486987 481.0546426098284 24.999999999999908
    vertex 2083.5294532486987 468.0546426098284 14.999999999999911
    vertex 2083.5294532486987 481.0546426098284 -9.023892744153272e-14
  endloop
endfacet
facet normal 0.0 0.0 1.0
  outer loop
    vertex 2083.5294532486987 456.0546426098284 24.999999999999908
    vertex 2077.029453248699 470.5546426098285 24.999999999999908
    vertex 2077.029453248699 456.0546426098284 24.999999999999908
  endloop
endfacet
facet normal 0.0 0.0 1.0
  outer loop
    vertex 2077.029453248699 470.5546426098285 24.999999999999908
    vertex 2083.5294532486987 456.0546426098284 24.999999999999908
    vertex 2078.0294532486982 470.5546426098285 24.999999999999908
  endloop
endfacet
facet normal 0.0 0.0 1.0
  outer loop
    vertex 2078.0294532486982 470.5546426098285 24.999999999999908
    vertex 2083.5294532486987 456.0546426098284 24.999999999999908
    vertex 2078.0294532486982 474.5546426098285 24.999999999999908
  endloop
endfacet
facet normal 0.0 0.0 1.0
  outer loop
    vertex 2078.0294532486982 474.5546426098285 24.999999999999908
    vertex 2083.5294532486987 456.0546426098284 24.999999999999908
    vertex 2078.0294532486982 481.0546426098284 24.999999999999908
  endloop
endfacet
facet normal 0.0 0.0 1.0
  outer loop
    vertex 2078.0294532486982 481.0546426098284 24.999999999999908
    vertex 2083.5294532486987 456.0546426098284 24.999999999999908
    vertex 2083.5294532486987 481.0546426098284 24.999999999999908
  endloop
endfacet
facet normal 0.0 1.0 0.0
  outer loop
    vertex 2057.5294532486982 481.0546426098284 -9.023892744153272e-14
    vertex 2060.0294532486982 481.0546426098284 19.99999999999991
    vertex 2083.5294532486987 481.0546426098284 -9.023892744153272e-14
  endloop
endfacet
facet normal 0.0 1.0 0.0
  outer loop
    vertex 2060.0294532486982 481.0546426098284 19.99999999999991
    vertex 2057.5294532486982 481.0546426098284 -9.023892744153272e-14
    vertex 2057.5294532486982 481.0546426098284 24.999999999999908
  endloop
endfacet
facet normal 0.0 1.0 0.0
  outer loop
    vertex 2060.0294532486982 481.0546426098284 19.99999999999991
    vertex 2057.5294532486982 481.0546426098284 24.999999999999908
    vertex 2060.0294532486982 481.0546426098284 24.999999999999908
  endloop
endfacet
facet normal 0.0 1.0 0.0
  outer loop
    vertex 2083.5294532486987 481.0546426098284 -9.023892744153272e-14
    vertex 2078.0294532486982 481.0546426098284 19.99999999999991
    vertex 2083.5294532486987 481.0546426098284 24.999999999999908
  endloop
endfacet
facet normal 0.0 1.0 0.0
  outer loop
    vertex 2078.0294532486982 481.0546426098284 19.99999999999991
    vertex 2083.5294532486987 481.0546426098284 -9.023892744153272e-14
    vertex 2060.0294532486982 481.0546426098284 19.99999999999991
  endloop
endfacet
facet normal 0.0 1.0 0.0
  outer loop
    vertex 2083.5294532486987 481.0546426098284 24.999999999999908
    vertex 2078.0294532486982 481.0546426098284 19.99999999999991
    vertex 2078.0294532486982 481.0546426098284 24.999999999999908
  endloop
endfacet
facet normal 2.068469167733596e-18 -0.6246950475544246 0.7808688094430303
  outer loop
    vertex 2075.5294532486987 468.0546426098284 6.999999999999911
    vertex 2062.5294532486982 470.5546426098285 8.999999999999911
    vertex 2062.5294532486973 468.0546426098284 6.999999999999911
  endloop
endfacet
facet normal 2.068469167733596e-18 -0.6246950475544246 0.7808688094430303
  outer loop
    vertex 2062.5294532486982 470.5546426098285 8.999999999999911
    vertex 2075.5294532486987 468.0546426098284 6.999999999999911
    vertex 2075.5294532486987 470.5546426098285 8.999999999999911
  endloop
endfacet
facet normal 1.0 0.0 0.0
  outer loop
    vertex 2060.0294532486982 470.5546426098285 24.999999999999908
    vertex 2060.0294532486982 468.0546426098284 20.0000000000002
    vertex 2060.0294532486982 470.5546426098285 20.0000000000002
  endloop
endfacet
facet normal 1.0 -1.7474212031691962e-13 -1.433933641536698e-14
  outer loop
    vertex 2062.5294532486982 470.5546426098285 8.999999999999911
    vertex 2062.5294532486982 468.0546426098284 17.499999999999908
    vertex 2062.5294532486973 468.0546426098284 6.999999999999911
  endloop
endfacet
facet normal 1.0 -1.7474212031691962e-13 -1.433933641536698e-14
  outer loop
    vertex 2062.5294532486982 468.0546426098284 17.499999999999908
    vertex 2062.5294532486982 470.5546426098285 8.999999999999911
    vertex 2062.5294532486982 470.55464260982836 17.499999999999908
  endloop
endfacet
facet normal 0.0 -0.8944271909999053 0.44721359549997897
  outer loop
    vertex 2060.0294532486982 470.5546426098285 24.999999999999908
    vertex 2057.5294532486982 468.0546426098284 20.0000000000002
    vertex 2060.0294532486982 468.0546426098284 20.0000000000002
  endloop
endfacet
facet normal 0.0 -0.8944271909999053 0.44721359549997897
  outer loop
    vertex 2057.5294532486982 468.0546426098284 20.0000000000002
    vertex 2060.0294532486982 470.5546426098285 24.999999999999908
    vertex 2057.5294532486982 470.5546426098285 24.999999999999908
  endloop
endfacet
facet normal 0.0 0.0 -1.0
  outer loop
    vertex 2057.5294532486982 481.0546426098284 -9.023892744153272e-14
    vertex 2060.0294532486982 478.5546426098285 -9.023892744153272e-14
    vertex 2057.5294532486982 468.0546426098284 -9.023892744153272e-14
  endloop
endfacet
facet normal 0.0 0.0 -1.0
  outer loop
    vertex 2060.0294532486982 478.5546426098285 -9.023892744153272e-14
    vertex 2057.5294532486982 481.0546426098284 -9.023892744153272e-14
    vertex 2083.5294532486987 481.0546426098284 -9.023892744153272e-14
  endloop
endfacet
facet normal 0.0 0.0 -1.0
  outer loop
    vertex 2060.0294532486982 478.5546426098285 -9.023892744153272e-14
    vertex 2083.5294532486987 481.0546426098284 -9.023892744153272e-14
    vertex 2078.0294532486982 478.5546426098285 -9.023892744153272e-14
  endloop
endfacet
facet normal 0.0 0.0 -1.0
  outer loop
    vertex 2078.0294532486982 478.5546426098285 -9.023892744153272e-14
    vertex 2083.5294532486987 481.0546426098284 -9.023892744153272e-14
    vertex 2078.0294532486982 470.5546426098285 -9.023892744153272e-14
  endloop
endfacet
facet normal 0.0 0.0 -1.0
  outer loop
    vertex 2057.5294532486982 468.0546426098284 -9.023892744153272e-14
    vertex 2060.0294532486982 470.5546426098285 -9.023892744153272e-14
    vertex 2083.5294532486987 468.0546426098284 -9.023892744153272e-14
  endloop
endfacet
facet normal 0.0 0.0 -1.0
  outer loop
    vertex 2060.0294532486982 470.5546426098285 -9.023892744153272e-14
    vertex 2057.5294532486982 468.0546426098284 -9.023892744153272e-14
    vertex 2060.0294532486982 478.5546426098285 -9.023892744153272e-14
  endloop
endfacet
facet normal 0.0 0.0 -1.0
  outer loop
    vertex 2083.5294532486987 468.0546426098284 -9.023892744153272e-14
    vertex 2060.0294532486982 470.5546426098285 -9.023892744153272e-14
    vertex 2078.0294532486982 470.5546426098285 -9.023892744153272e-14
  endloop
endfacet
facet normal 0.0 0.0 -1.0
  outer loop
    vertex 2083.5294532486987 468.0546426098284 -9.023892744153272e-14
    vertex 2078.0294532486982 470.5546426098285 -9.023892744153272e-14
    vertex 2083.5294532486987 481.0546426098284 -9.023892744153272e-14
  endloop
endfacet
facet normal -1.0 0.0 0.0
  outer loop
    vertex 2075.5294532486987 470.5529916098284 23.499999999999908
    vertex 2075.5294532486987 456.0546426098284 20.99999999999991
    vertex 2075.5294532486987 456.0546426098284 23.499999999999908
  endloop
endfacet
facet normal -1.0 0.0 0.0
  outer loop
    vertex 2075.5294532486987 456.0546426098284 20.99999999999991
    vertex 2075.5294532486987 470.5529916098284 23.499999999999908
    vertex 2075.5294532486987 466.0546426098284 14.999999999999911
  endloop
endfacet
facet normal -1.0 0.0 0.0
  outer loop
    vertex 2075.5294532486987 466.0546426098284 14.999999999999911
    vertex 2075.5294532486987 470.5529916098284 23.499999999999908
    vertex 2075.5294532486987 468.0546426098284 14.999999999999911
  endloop
endfacet
facet normal -1.0 0.0 0.0
  outer loop
    vertex 2075.5294532486987 468.0546426098284 14.999999999999911
    vertex 2075.5294532486987 470.5529916098284 23.499999999999908
    vertex 2075.5294532486987 468.0546426098284 6.999999999999911
  endloop
endfacet
facet normal -1.0 0.0 0.0
  outer loop
    vertex 2075.5294532486987 468.0546426098284 6.999999999999911
    vertex 2075.5294532486987 470.5529916098284 23.499999999999908
    vertex 2075.5294532486987 470.5546426098285 8.999999999999911
  endloop
endfacet
facet normal 1.477120221510141e-05 0.9999999997871352 1.4406300708697276e-05
  outer loop
    vertex 2060.0294532486982 470.5546426098285 -9.023892744153272e-14
    vertex 2062.5294532486982 470.5546426098285 8.999999999999911
    vertex 2078.0294532486982 470.5546426098285 -9.023892744153272e-14
  endloop
endfacet
facet normal 1.477120221510141e-05 0.9999999997871352 1.4406300708697276e-05
  outer loop
    vertex 2062.5294532486982 470.5546426098285 8.999999999999911
    vertex 2060.0294532486982 470.5546426098285 -9.023892744153272e-14
    vertex 2060.0294532486982 470.5546426098285 14.999999999999911
  endloop
endfacet
facet normal 1.477120221510141e-05 0.9999999997871352 1.4406300708697276e-05
  outer loop
    vertex 2062.5294532486982 470.5546426098285 8.999999999999911
    vertex 2060.0294532486982 470.5546426098285 14.999999999999911
    vertex 2062.5294532486982 470.55464260982836 17.499999999999908
  endloop
endfacet
facet normal 1.477120221510141e-05 0.9999999997871352 1.4406300708697276e-05
  outer loop
    vertex 2062.5294532486982 470.55464260982836 17.499999999999908
    vertex 2060.0294532486982 470.5546426098285 14.999999999999911
    vertex 2060.0294532486982 470.5546426098285 20.0000000000002
  endloop
endfacet
facet normal 1.477120221510141e-05 0.9999999997871352 1.4406300708697276e-05
  outer loop
    vertex 2078.0294532486982 470.5546426098285 -9.023892744153272e-14
    vertex 2075.5294532486987 470.5546426098285 8.999999999999911
    vertex 2078.0294532486982 470.5546426098285 24.999999999999908
  endloop
endfacet
facet normal 1.477120221510141e-05 0.9999999997871352 1.4406300708697276e-05
  outer loop
    vertex 2075.5294532486987 470.5546426098285 8.999999999999911
    vertex 2078.0294532486982 470.5546426098285 -9.023892744153272e-14
    vertex 2062.5294532486982 470.5546426098285 8.999999999999911
  endloop
endfacet
facet normal 1.477120221510141e-05 0.9999999997871352 1.4406300708697276e-05
  outer loop
    vertex 2078.0294532486982 470.5546426098285 24.999999999999908
    vertex 2075.5294532486987 470.5546426098285 8.999999999999911
    vertex 2075.5294532486987 470.5529916098284 23.499999999999908
  endloop
endfacet
facet normal 1.477120221510141e-05 0.9999999997871352 1.4406300708697276e-05
  outer loop
    vertex 2078.0294532486982 470.5546426098285 24.999999999999908
    vertex 2075.5294532486987 470.5529916098284 23.499999999999908
    vertex 2077.029453248699 470.5546426098285 24.999999999999908
  endloop
endfacet
facet normal 0.0 -0.5144957554275273 -0.8574929257125438
  outer loop
    vertex 2083.5294532486987 466.0546426098284 14.999999999999911
    vertex 2075.5294532486987 456.0546426098284 20.99999999999991
    vertex 2075.5294532486987 466.0546426098284 14.999999999999911
  endloop
endfacet
facet normal 0.0 -0.5144957554275273 -0.8574929257125438
  outer loop
    vertex 2075.5294532486987 456.0546426098284 20.99999999999991
    vertex 2083.5294532486987 466.0546426098284 14.999999999999911
    vertex 2083.5294532486987 456.0546426098284 20.99999999999991
  endloop
endfacet
facet normal 1.0620225765857959e-16 -1.0 -3.210583486373142e-17
  outer loop
    vertex 2083.5294532486987 468.0546426098284 -9.023892744153272e-14
    vertex 2075.5294532486987 468.0546426098284 6.999999999999911
    vertex 2057.5294532486982 468.0546426098284 -9.023892744153272e-14
  endloop
endfacet
facet normal 1.0620225765857959e-16 -1.0 -3.210583486373142e-17
  outer loop
    vertex 2075.5294532486987 468.0546426098284 6.999999999999911
    vertex 2083.5294532486987 468.0546426098284 -9.023892744153272e-14
    vertex 2083.5294532486987 468.0546426098284 14.999999999999911
  endloop
endfacet
facet normal 1.0620225765857959e-16 -1.0 -3.210583486373142e-17
  outer loop
    vertex 2075.5294532486987 468.0546426098284 6.999999999999911
    vertex 2083.5294532486987 468.0546426098284 14.999999999999911
    vertex 2075.5294532486987 468.0546426098284 14.999999999999911
  endloop
endfacet
facet normal 1.0620225765857959e-16 -1.0 -3.210583486373142e-17
  outer loop
    vertex 2057.5294532486982 468.0546426098284 -9.023892744153272e-14
    vertex 2062.5294532486973 468.0546426098284 6.999999999999911
    vertex 2057.5294532486982 468.0546426098284 20.0000000000002
  endloop
endfacet
facet normal 1.0620225765857959e-16 -1.0 -3.210583486373142e-17
  outer loop
    vertex 2062.5294532486973 468.0546426098284 6.999999999999911
    vertex 2057.5294532486982 468.0546426098284 -9.023892744153272e-14
    vertex 2075.5294532486987 468.0546426098284 6.999999999999911
  endloop
endfacet
facet normal 1.0620225765857959e-16 -1.0 -3.210583486373142e-17
  outer loop
    vertex 2057.5294532486982 468.0546426098284 20.0000000000002
    vertex 2062.5294532486973 468.0546426098284 6.999999999999911
    vertex 2062.5294532486982 468.0546426098284 17.499999999999908
  endloop
endfacet
facet normal 1.0620225765857959e-16 -1.0 -3.210583486373142e-17
  outer loop
    vertex 2057.5294532486982 468.0546426098284 20.0000000000002
    vertex 2062.5294532486982 468.0546426098284 17.499999999999908
    vertex 2060.0294532486982 468.0546426098284 20.0000000000002
  endloop
endfacet
facet normal 0.7071067811866182 3.986924583917685e-28 0.707106781186477
  outer loop
    vertex 2062.5294532486982 470.55464260982836 17.499999999999908
    vertex 2060.0294532486982 468.0546426098284 20.0000000000002
    vertex 2062.5294532486982 468.0546426098284 17.499999999999908
  endloop
endfacet
facet normal 0.7071067811866182 3.986924583917685e-28 0.707106781186477
  outer loop
    vertex 2060.0294532486982 468.0546426098284 20.0000000000002
    vertex 2062.5294532486982 470.55464260982836 17.499999999999908
    vertex 2060.0294532486982 470.5546426098285 20.0000000000002
  endloop
endfacet
facet normal 0.0 -1.0 0.0
  outer loop
    vertex 2083.5294532486987 456.0546426098284 24.999999999999908
    vertex 2075.5294532486987 456.0546426098284 20.99999999999991
    vertex 2083.5294532486987 456.0546426098284 20.99999999999991
  endloop
endfacet
facet normal 0.0 -1.0 0.0
  outer loop
    vertex 2075.5294532486987 456.0546426098284 20.99999999999991
    vertex 2083.5294532486987 456.0546426098284 24.999999999999908
    vertex 2075.5294532486987 456.0546426098284 23.499999999999908
  endloop
endfacet
facet normal 0.0 -1.0 0.0
  outer loop
    vertex 2075.5294532486987 456.0546426098284 23.499999999999908
    vertex 2083.5294532486987 456.0546426098284 24.999999999999908
    vertex 2077.029453248699 456.0546426098284 24.999999999999908
  endloop
endfacet
facet normal -1.0 0.0 0.0
  outer loop
    vertex 2057.5294532486982 470.5546426098285 24.999999999999908
    vertex 2057.5294532486982 468.0546426098284 -9.023892744153272e-14
    vertex 2057.5294532486982 468.0546426098284 20.0000000000002
  endloop
endfacet
facet normal -1.0 0.0 0.0
  outer loop
    vertex 2057.5294532486982 468.0546426098284 -9.023892744153272e-14
    vertex 2057.5294532486982 470.5546426098285 24.999999999999908
    vertex 2057.5294532486982 481.0546426098284 -9.023892744153272e-14
  endloop
endfacet
facet normal -1.0 0.0 0.0
  outer loop
    vertex 2057.5294532486982 481.0546426098284 -9.023892744153272e-14
    vertex 2057.5294532486982 470.5546426098285 24.999999999999908
    vertex 2057.5294532486982 481.0546426098284 24.999999999999908
  endloop
endfacet
facet normal 9.011908076788616e-17 -1.0 7.81032033321686e-18
  outer loop
    vertex 2078.0294532486982 478.5546426098285 19.99999999999991
    vertex 2060.0294532486982 478.5546426098285 -9.023892744153272e-14
    vertex 2078.0294532486982 478.5546426098285 -9.023892744153272e-14
  endloop
endfacet
facet normal 9.011908076788616e-17 -1.0 7.81032033321686e-18
  outer loop
    vertex 2060.0294532486982 478.5546426098285 -9.023892744153272e-14
    vertex 2078.0294532486982 478.5546426098285 19.99999999999991
    vertex 2060.0294532486982 478.5546426098285 19.99999999999991
  endloop
endfacet
endsolid 280 EA Oct 23
