solid 280 EA Oct 23
facet normal -0.9914448613738258 0.13052619221993464 0.0
  outer loop
    vertex 1790.682563983751 400.39091183410477 2.0000000000000093
    vertex 1790.6246378884425 399.95091945743053 9.86988268891764e-15
    vertex 1790.6246378884425 399.95091945743053 2.0000000000000093
  endloop
endfacet
facet normal -0.9914448613738258 0.13052619221993464 0.0
  outer loop
    vertex 1790.6246378884425 399.95091945743053 9.86988268891764e-15
    vertex 1790.682563983751 400.39091183410477 2.0000000000000093
    vertex 1790.682563983751 400.39091183410477 9.86988268891764e-15
  endloop
endfacet
facet normal -0.9914448613738276 -0.13052619221992148 0.0
  outer loop
    vertex 1790.6246378884425 400.8309042107791 2.0000000000000093
    vertex 1790.682563983751 400.39091183410477 9.86988268891764e-15
    vertex 1790.682563983751 400.39091183410477 2.0000000000000093
  endloop
endfacet
facet normal -0.9914448613738276 -0.13052619221992148 0.0
  outer loop
    vertex 1790.682563983751 400.39091183410477 9.86988268891764e-15
    vertex 1790.6246378884425 400.8309042107791 2.0000000000000093
    vertex 1790.6246378884425 400.8309042107791 9.86988268891764e-15
  endloop
endfacet
facet normal -0.9238795325112118 -0.3826834323652707 -0.0
  outer loop
    vertex 1790.4548071701845 401.2409118341048 2.0000000000000093
    vertex 1790.6246378884425 400.8309042107791 9.86988268891764e-15
    vertex 1790.6246378884425 400.8309042107791 2.0000000000000093
  endloop
endfacet
facet normal -0.9238795325112118 -0.3826834323652707 -0.0
  outer loop
    vertex 1790.6246378884425 400.8309042107791 9.86988268891764e-15
    vertex 1790.4548071701845 401.2409118341048 2.0000000000000093
    vertex 1790.4548071701845 401.2409118341048 9.86988268891764e-15
  endloop
endfacet
facet normal -0.7933533402914122 -0.60876142900849 -0.0
  outer loop
    vertex 1790.1846455117682 401.59299336212194 2.0000000000000093
    vertex 1790.4548071701845 401.2409118341048 9.86988268891764e-15
    vertex 1790.4548071701845 401.2409118341048 2.0000000000000093
  endloop
endfacet
facet normal -0.7933533402914122 -0.60876142900849 -0.0
  outer loop
    vertex 1790.4548071701845 401.2409118341048 9.86988268891764e-15
    vertex 1790.1846455117682 401.59299336212194 2.0000000000000093
    vertex 1790.1846455117682 401.59299336212194 9.86988268891764e-15
  endloop
endfacet
facet normal -0.6087614290087802 -0.7933533402911895 -0.0
  outer loop
    vertex 1790.1846455117682 401.59299336212194 2.0000000000000093
    vertex 1789.8325639837512 401.86315502053833 9.86988268891764e-15
    vertex 1790.1846455117682 401.59299336212194 9.86988268891764e-15
  endloop
endfacet
facet normal -0.6087614290087802 -0.7933533402911895 -0.0
  outer loop
    vertex 1789.8325639837512 401.86315502053833 9.86988268891764e-15
    vertex 1790.1846455117682 401.59299336212194 2.0000000000000093
    vertex 1789.8325639837512 401.86315502053833 2.0000000000000093
  endloop
endfacet
facet normal -0.38268343236488156 -0.9238795325113731 -0.0
  outer loop
    vertex 1789.8325639837512 401.86315502053833 2.0000000000000093
    vertex 1789.4225563604252 402.0329857387962 9.86988268891764e-15
    vertex 1789.8325639837512 401.86315502053833 9.86988268891764e-15
  endloop
endfacet
facet normal -0.38268343236488156 -0.9238795325113731 -0.0
  outer loop
    vertex 1789.4225563604252 402.0329857387962 9.86988268891764e-15
    vertex 1789.8325639837512 401.86315502053833 2.0000000000000093
    vertex 1789.4225563604252 402.0329857387962 2.0000000000000093
  endloop
endfacet
facet normal -0.13052619222014766 -0.9914448613737977 -0.0
  outer loop
    vertex 1789.4225563604252 402.0329857387962 2.0000000000000093
    vertex 1788.982563983751 402.0909118341048 9.86988268891764e-15
    vertex 1789.4225563604252 402.0329857387962 9.86988268891764e-15
  endloop
endfacet
facet normal -0.13052619222014766 -0.9914448613737977 -0.0
  outer loop
    vertex 1788.982563983751 402.0909118341048 9.86988268891764e-15
    vertex 1789.4225563604252 402.0329857387962 2.0000000000000093
    vertex 1788.982563983751 402.0909118341048 2.0000000000000093
  endloop
endfacet
facet normal 0.13052619222014766 -0.9914448613737977 0.0
  outer loop
    vertex 1788.982563983751 402.0909118341048 2.0000000000000093
    vertex 1788.5425716070768 402.0329857387962 9.86988268891764e-15
    vertex 1788.982563983751 402.0909118341048 9.86988268891764e-15
  endloop
endfacet
facet normal 0.13052619222014766 -0.9914448613737977 0.0
  outer loop
    vertex 1788.5425716070768 402.0329857387962 9.86988268891764e-15
    vertex 1788.982563983751 402.0909118341048 2.0000000000000093
    vertex 1788.5425716070768 402.0329857387962 2.0000000000000093
  endloop
endfacet
facet normal 0.38268343236488156 -0.9238795325113731 0.0
  outer loop
    vertex 1788.5425716070768 402.0329857387962 2.0000000000000093
    vertex 1788.1325639837507 401.86315502053833 9.86988268891764e-15
    vertex 1788.5425716070768 402.0329857387962 9.86988268891764e-15
  endloop
endfacet
facet normal 0.38268343236488156 -0.9238795325113731 0.0
  outer loop
    vertex 1788.1325639837507 401.86315502053833 9.86988268891764e-15
    vertex 1788.5425716070768 402.0329857387962 2.0000000000000093
    vertex 1788.1325639837507 401.86315502053833 2.0000000000000093
  endloop
endfacet
facet normal 0.6087614290087802 -0.7933533402911895 0.0
  outer loop
    vertex 1788.1325639837507 401.86315502053833 2.0000000000000093
    vertex 1787.7804824557338 401.59299336212194 9.86988268891764e-15
    vertex 1788.1325639837507 401.86315502053833 9.86988268891764e-15
  endloop
endfacet
facet normal 0.6087614290087802 -0.7933533402911895 0.0
  outer loop
    vertex 1787.7804824557338 401.59299336212194 9.86988268891764e-15
    vertex 1788.1325639837507 401.86315502053833 2.0000000000000093
    vertex 1787.7804824557338 401.59299336212194 2.0000000000000093
  endloop
endfacet
facet normal 0.7933533402914122 -0.60876142900849 0.0
  outer loop
    vertex 1787.7804824557338 401.59299336212194 9.86988268891764e-15
    vertex 1787.5103207973175 401.2409118341048 2.0000000000000093
    vertex 1787.5103207973175 401.2409118341048 9.86988268891764e-15
  endloop
endfacet
facet normal 0.7933533402914122 -0.60876142900849 0.0
  outer loop
    vertex 1787.5103207973175 401.2409118341048 2.0000000000000093
    vertex 1787.7804824557338 401.59299336212194 9.86988268891764e-15
    vertex 1787.7804824557338 401.59299336212194 2.0000000000000093
  endloop
endfacet
facet normal 0.9238795325112268 -0.3826834323652348 0.0
  outer loop
    vertex 1787.5103207973175 401.2409118341048 9.86988268891764e-15
    vertex 1787.3404900790595 400.83090421077907 2.0000000000000093
    vertex 1787.3404900790595 400.83090421077907 9.86988268891764e-15
  endloop
endfacet
facet normal 0.9238795325112268 -0.3826834323652348 0.0
  outer loop
    vertex 1787.3404900790595 400.83090421077907 2.0000000000000093
    vertex 1787.5103207973175 401.2409118341048 9.86988268891764e-15
    vertex 1787.5103207973175 401.2409118341048 2.0000000000000093
  endloop
endfacet
facet normal 0.9914448613738258 -0.13052619221993464 0.0
  outer loop
    vertex 1787.3404900790595 400.83090421077907 9.86988268891764e-15
    vertex 1787.282563983751 400.39091183410477 2.0000000000000093
    vertex 1787.282563983751 400.39091183410477 9.86988268891764e-15
  endloop
endfacet
facet normal 0.9914448613738258 -0.13052619221993464 0.0
  outer loop
    vertex 1787.282563983751 400.39091183410477 2.0000000000000093
    vertex 1787.3404900790595 400.83090421077907 9.86988268891764e-15
    vertex 1787.3404900790595 400.83090421077907 2.0000000000000093
  endloop
endfacet
facet normal 0.9914448613738276 0.13052619221992148 0.0
  outer loop
    vertex 1787.282563983751 400.39091183410477 9.86988268891764e-15
    vertex 1787.3404900790595 399.9509194574305 2.0000000000000093
    vertex 1787.3404900790595 399.9509194574305 9.86988268891764e-15
  endloop
endfacet
facet normal 0.9914448613738276 0.13052619221992148 0.0
  outer loop
    vertex 1787.3404900790595 399.9509194574305 2.0000000000000093
    vertex 1787.282563983751 400.39091183410477 9.86988268891764e-15
    vertex 1787.282563983751 400.39091183410477 2.0000000000000093
  endloop
endfacet
facet normal 0.9238795325112118 0.3826834323652707 0.0
  outer loop
    vertex 1787.3404900790595 399.9509194574305 9.86988268891764e-15
    vertex 1787.5103207973175 399.5409118341048 2.0000000000000093
    vertex 1787.5103207973175 399.5409118341048 9.86988268891764e-15
  endloop
endfacet
facet normal 0.9238795325112118 0.3826834323652707 0.0
  outer loop
    vertex 1787.5103207973175 399.5409118341048 2.0000000000000093
    vertex 1787.3404900790595 399.9509194574305 9.86988268891764e-15
    vertex 1787.3404900790595 399.9509194574305 2.0000000000000093
  endloop
endfacet
facet normal 0.7933533402914122 0.60876142900849 0.0
  outer loop
    vertex 1787.5103207973175 399.5409118341048 9.86988268891764e-15
    vertex 1787.7804824557338 399.18883030608765 2.0000000000000093
    vertex 1787.7804824557338 399.18883030608765 9.86988268891764e-15
  endloop
endfacet
facet normal 0.7933533402914122 0.60876142900849 0.0
  outer loop
    vertex 1787.7804824557338 399.18883030608765 2.0000000000000093
    vertex 1787.5103207973175 399.5409118341048 9.86988268891764e-15
    vertex 1787.5103207973175 399.5409118341048 2.0000000000000093
  endloop
endfacet
facet normal 0.6087614290087802 0.7933533402911895 0.0
  outer loop
    vertex 1787.7804824557338 399.18883030608765 2.0000000000000093
    vertex 1788.1325639837507 398.91866864767127 9.86988268891764e-15
    vertex 1787.7804824557338 399.18883030608765 9.86988268891764e-15
  endloop
endfacet
facet normal 0.6087614290087802 0.7933533402911895 0.0
  outer loop
    vertex 1788.1325639837507 398.91866864767127 9.86988268891764e-15
    vertex 1787.7804824557338 399.18883030608765 2.0000000000000093
    vertex 1788.1325639837507 398.91866864767127 2.0000000000000093
  endloop
endfacet
facet normal 0.38268343236488156 0.9238795325113731 0.0
  outer loop
    vertex 1788.1325639837507 398.91866864767127 2.0000000000000093
    vertex 1788.5425716070768 398.7488379294134 9.86988268891764e-15
    vertex 1788.1325639837507 398.91866864767127 9.86988268891764e-15
  endloop
endfacet
facet normal 0.38268343236488156 0.9238795325113731 0.0
  outer loop
    vertex 1788.5425716070768 398.7488379294134 9.86988268891764e-15
    vertex 1788.1325639837507 398.91866864767127 2.0000000000000093
    vertex 1788.5425716070768 398.7488379294134 2.0000000000000093
  endloop
endfacet
facet normal 0.13052619222014766 0.9914448613737977 0.0
  outer loop
    vertex 1788.5425716070768 398.7488379294134 2.0000000000000093
    vertex 1788.982563983751 398.6909118341048 9.86988268891764e-15
    vertex 1788.5425716070768 398.7488379294134 9.86988268891764e-15
  endloop
endfacet
facet normal 0.13052619222014766 0.9914448613737977 0.0
  outer loop
    vertex 1788.982563983751 398.6909118341048 9.86988268891764e-15
    vertex 1788.5425716070768 398.7488379294134 2.0000000000000093
    vertex 1788.982563983751 398.6909118341048 2.0000000000000093
  endloop
endfacet
facet normal -0.13052619222014766 0.9914448613737977 0.0
  outer loop
    vertex 1788.982563983751 398.6909118341048 2.0000000000000093
    vertex 1789.4225563604252 398.7488379294134 9.86988268891764e-15
    vertex 1788.982563983751 398.6909118341048 9.86988268891764e-15
  endloop
endfacet
facet normal -0.13052619222014766 0.9914448613737977 0.0
  outer loop
    vertex 1789.4225563604252 398.7488379294134 9.86988268891764e-15
    vertex 1788.982563983751 398.6909118341048 2.0000000000000093
    vertex 1789.4225563604252 398.7488379294134 2.0000000000000093
  endloop
endfacet
facet normal -0.38268343236488156 0.9238795325113731 0.0
  outer loop
    vertex 1789.4225563604252 398.7488379294134 2.0000000000000093
    vertex 1789.8325639837512 398.91866864767127 9.86988268891764e-15
    vertex 1789.4225563604252 398.7488379294134 9.86988268891764e-15
  endloop
endfacet
facet normal -0.38268343236488156 0.9238795325113731 0.0
  outer loop
    vertex 1789.8325639837512 398.91866864767127 9.86988268891764e-15
    vertex 1789.4225563604252 398.7488379294134 2.0000000000000093
    vertex 1789.8325639837512 398.91866864767127 2.0000000000000093
  endloop
endfacet
facet normal -0.6087614290087802 0.7933533402911895 0.0
  outer loop
    vertex 1789.8325639837512 398.91866864767127 2.0000000000000093
    vertex 1790.1846455117682 399.18883030608765 9.86988268891764e-15
    vertex 1789.8325639837512 398.91866864767127 9.86988268891764e-15
  endloop
endfacet
facet normal -0.6087614290087802 0.7933533402911895 0.0
  outer loop
    vertex 1790.1846455117682 399.18883030608765 9.86988268891764e-15
    vertex 1789.8325639837512 398.91866864767127 2.0000000000000093
    vertex 1790.1846455117682 399.18883030608765 2.0000000000000093
  endloop
endfacet
facet normal -0.7933533402914122 0.60876142900849 0.0
  outer loop
    vertex 1790.4548071701845 399.5409118341048 2.0000000000000093
    vertex 1790.1846455117682 399.18883030608765 9.86988268891764e-15
    vertex 1790.1846455117682 399.18883030608765 2.0000000000000093
  endloop
endfacet
facet normal -0.7933533402914122 0.60876142900849 0.0
  outer loop
    vertex 1790.1846455117682 399.18883030608765 9.86988268891764e-15
    vertex 1790.4548071701845 399.5409118341048 2.0000000000000093
    vertex 1790.4548071701845 399.5409118341048 9.86988268891764e-15
  endloop
endfacet
facet normal -0.9238795325112268 0.3826834323652348 0.0
  outer loop
    vertex 1790.6246378884425 399.95091945743053 2.0000000000000093
    vertex 1790.4548071701845 399.5409118341048 9.86988268891764e-15
    vertex 1790.4548071701845 399.5409118341048 2.0000000000000093
  endloop
endfacet
facet normal -0.9238795325112268 0.3826834323652348 0.0
  outer loop
    vertex 1790.4548071701845 399.5409118341048 9.86988268891764e-15
    vertex 1790.6246378884425 399.95091945743053 2.0000000000000093
    vertex 1790.6246378884425 399.95091945743053 9.86988268891764e-15
  endloop
endfacet
facet normal 0.0 0.0 -1.0
  outer loop
    vertex 1785.9825639837509 403.39091183410477 9.517386878599154e-15
    vertex 1787.3404900790595 400.83090421077907 9.86988268891764e-15
    vertex 1785.9825639837509 397.39091183410477 9.517386878599154e-15
  endloop
endfacet
facet normal 0.0 0.0 -1.0
  outer loop
    vertex 1787.3404900790595 400.83090421077907 9.86988268891764e-15
    vertex 1785.9825639837509 403.39091183410477 9.517386878599154e-15
    vertex 1787.5103207973175 401.2409118341048 9.86988268891764e-15
  endloop
endfacet
facet normal 0.0 0.0 -1.0
  outer loop
    vertex 1787.5103207973175 401.2409118341048 9.86988268891764e-15
    vertex 1785.9825639837509 403.39091183410477 9.517386878599154e-15
    vertex 1787.7804824557338 401.59299336212194 9.86988268891764e-15
  endloop
endfacet
facet normal 0.0 0.0 -1.0
  outer loop
    vertex 1787.7804824557338 401.59299336212194 9.86988268891764e-15
    vertex 1785.9825639837509 403.39091183410477 9.517386878599154e-15
    vertex 1788.1325639837507 401.86315502053833 9.86988268891764e-15
  endloop
endfacet
facet normal 0.0 0.0 -1.0
  outer loop
    vertex 1788.1325639837507 401.86315502053833 9.86988268891764e-15
    vertex 1785.9825639837509 403.39091183410477 9.517386878599154e-15
    vertex 1788.5425716070768 402.0329857387962 9.86988268891764e-15
  endloop
endfacet
facet normal 0.0 0.0 -1.0
  outer loop
    vertex 1788.5425716070768 402.0329857387962 9.86988268891764e-15
    vertex 1785.9825639837509 403.39091183410477 9.517386878599154e-15
    vertex 1791.982563983751 403.39091183410477 9.517386878599154e-15
  endloop
endfacet
facet normal 0.0 0.0 -1.0
  outer loop
    vertex 1785.9825639837509 397.39091183410477 9.517386878599154e-15
    vertex 1787.3404900790595 400.83090421077907 9.86988268891764e-15
    vertex 1787.282563983751 400.39091183410477 9.86988268891764e-15
  endloop
endfacet
facet normal 0.0 0.0 -1.0
  outer loop
    vertex 1788.5425716070768 402.0329857387962 9.86988268891764e-15
    vertex 1791.982563983751 403.39091183410477 9.517386878599154e-15
    vertex 1788.982563983751 402.0909118341048 9.86988268891764e-15
  endloop
endfacet
facet normal 0.0 0.0 -1.0
  outer loop
    vertex 1788.982563983751 402.0909118341048 9.86988268891764e-15
    vertex 1791.982563983751 403.39091183410477 9.517386878599154e-15
    vertex 1789.4225563604252 402.0329857387962 9.86988268891764e-15
  endloop
endfacet
facet normal 0.0 0.0 -1.0
  outer loop
    vertex 1789.4225563604252 402.0329857387962 9.86988268891764e-15
    vertex 1791.982563983751 403.39091183410477 9.517386878599154e-15
    vertex 1789.8325639837512 401.86315502053833 9.86988268891764e-15
  endloop
endfacet
facet normal 0.0 0.0 -1.0
  outer loop
    vertex 1789.8325639837512 401.86315502053833 9.86988268891764e-15
    vertex 1791.982563983751 403.39091183410477 9.517386878599154e-15
    vertex 1790.1846455117682 401.59299336212194 9.86988268891764e-15
  endloop
endfacet
facet normal 0.0 0.0 -1.0
  outer loop
    vertex 1790.1846455117682 401.59299336212194 9.86988268891764e-15
    vertex 1791.982563983751 403.39091183410477 9.517386878599154e-15
    vertex 1790.4548071701845 401.2409118341048 9.86988268891764e-15
  endloop
endfacet
facet normal 0.0 0.0 -1.0
  outer loop
    vertex 1790.4548071701845 401.2409118341048 9.86988268891764e-15
    vertex 1791.982563983751 403.39091183410477 9.517386878599154e-15
    vertex 1790.6246378884425 400.8309042107791 9.86988268891764e-15
  endloop
endfacet
facet normal 0.0 0.0 -1.0
  outer loop
    vertex 1790.6246378884425 400.8309042107791 9.86988268891764e-15
    vertex 1791.982563983751 403.39091183410477 9.517386878599154e-15
    vertex 1790.682563983751 400.39091183410477 9.86988268891764e-15
  endloop
endfacet
facet normal 0.0 0.0 -1.0
  outer loop
    vertex 1785.9825639837509 397.39091183410477 9.517386878599154e-15
    vertex 1788.5425716070768 398.7488379294134 9.86988268891764e-15
    vertex 1791.982563983751 397.39091183410477 9.517386878599154e-15
  endloop
endfacet
facet normal 0.0 0.0 -1.0
  outer loop
    vertex 1788.5425716070768 398.7488379294134 9.86988268891764e-15
    vertex 1785.9825639837509 397.39091183410477 9.517386878599154e-15
    vertex 1788.1325639837507 398.91866864767127 9.86988268891764e-15
  endloop
endfacet
facet normal 0.0 0.0 -1.0
  outer loop
    vertex 1788.1325639837507 398.91866864767127 9.86988268891764e-15
    vertex 1785.9825639837509 397.39091183410477 9.517386878599154e-15
    vertex 1787.7804824557338 399.18883030608765 9.86988268891764e-15
  endloop
endfacet
facet normal 0.0 0.0 -1.0
  outer loop
    vertex 1787.7804824557338 399.18883030608765 9.86988268891764e-15
    vertex 1785.9825639837509 397.39091183410477 9.517386878599154e-15
    vertex 1787.5103207973175 399.5409118341048 9.86988268891764e-15
  endloop
endfacet
facet normal 0.0 0.0 -1.0
  outer loop
    vertex 1787.5103207973175 399.5409118341048 9.86988268891764e-15
    vertex 1785.9825639837509 397.39091183410477 9.517386878599154e-15
    vertex 1787.3404900790595 399.9509194574305 9.86988268891764e-15
  endloop
endfacet
facet normal 0.0 0.0 -1.0
  outer loop
    vertex 1787.3404900790595 399.9509194574305 9.86988268891764e-15
    vertex 1785.9825639837509 397.39091183410477 9.517386878599154e-15
    vertex 1787.282563983751 400.39091183410477 9.86988268891764e-15
  endloop
endfacet
facet normal 0.0 0.0 -1.0
  outer loop
    vertex 1791.982563983751 397.39091183410477 9.517386878599154e-15
    vertex 1788.5425716070768 398.7488379294134 9.86988268891764e-15
    vertex 1788.982563983751 398.6909118341048 9.86988268891764e-15
  endloop
endfacet
facet normal 0.0 0.0 -1.0
  outer loop
    vertex 1791.982563983751 397.39091183410477 9.517386878599154e-15
    vertex 1788.982563983751 398.6909118341048 9.86988268891764e-15
    vertex 1789.4225563604252 398.7488379294134 9.86988268891764e-15
  endloop
endfacet
facet normal 0.0 0.0 -1.0
  outer loop
    vertex 1791.982563983751 397.39091183410477 9.517386878599154e-15
    vertex 1789.4225563604252 398.7488379294134 9.86988268891764e-15
    vertex 1789.8325639837512 398.91866864767127 9.86988268891764e-15
  endloop
endfacet
facet normal 0.0 0.0 -1.0
  outer loop
    vertex 1791.982563983751 397.39091183410477 9.517386878599154e-15
    vertex 1789.8325639837512 398.91866864767127 9.86988268891764e-15
    vertex 1790.1846455117682 399.18883030608765 9.86988268891764e-15
  endloop
endfacet
facet normal 0.0 0.0 -1.0
  outer loop
    vertex 1791.982563983751 397.39091183410477 9.517386878599154e-15
    vertex 1790.1846455117682 399.18883030608765 9.86988268891764e-15
    vertex 1790.4548071701845 399.5409118341048 9.86988268891764e-15
  endloop
endfacet
facet normal 0.0 0.0 -1.0
  outer loop
    vertex 1791.982563983751 397.39091183410477 9.517386878599154e-15
    vertex 1790.4548071701845 399.5409118341048 9.86988268891764e-15
    vertex 1790.6246378884425 399.95091945743053 9.86988268891764e-15
  endloop
endfacet
facet normal 0.0 0.0 -1.0
  outer loop
    vertex 1791.982563983751 397.39091183410477 9.517386878599154e-15
    vertex 1790.6246378884425 399.95091945743053 9.86988268891764e-15
    vertex 1790.682563983751 400.39091183410477 9.86988268891764e-15
  endloop
endfacet
facet normal 0.0 0.0 -1.0
  outer loop
    vertex 1791.982563983751 397.39091183410477 9.517386878599154e-15
    vertex 1790.682563983751 400.39091183410477 9.86988268891764e-15
    vertex 1791.982563983751 403.39091183410477 9.517386878599154e-15
  endloop
endfacet
facet normal 0.0 1.0 0.0
  outer loop
    vertex 1785.9825639837509 403.39091183410477 2.0000000000000093
    vertex 1791.982563983751 403.39091183410477 9.517386878599154e-15
    vertex 1785.9825639837509 403.39091183410477 9.517386878599154e-15
  endloop
endfacet
facet normal 0.0 1.0 0.0
  outer loop
    vertex 1791.982563983751 403.39091183410477 9.517386878599154e-15
    vertex 1785.9825639837509 403.39091183410477 2.0000000000000093
    vertex 1791.982563983751 403.39091183410477 2.0000000000000093
  endloop
endfacet
facet normal -1.0 0.0 0.0
  outer loop
    vertex 1785.9825639837509 403.39091183410477 2.0000000000000093
    vertex 1785.9825639837509 397.39091183410477 9.517386878599154e-15
    vertex 1785.9825639837509 397.39091183410477 2.0000000000000093
  endloop
endfacet
facet normal -1.0 0.0 0.0
  outer loop
    vertex 1785.9825639837509 397.39091183410477 9.517386878599154e-15
    vertex 1785.9825639837509 403.39091183410477 2.0000000000000093
    vertex 1785.9825639837509 403.39091183410477 9.517386878599154e-15
  endloop
endfacet
facet normal 1.0 0.0 0.0
  outer loop
    vertex 1791.982563983751 403.39091183410477 9.517386878599154e-15
    vertex 1791.982563983751 397.39091183410477 2.0000000000000093
    vertex 1791.982563983751 397.39091183410477 9.517386878599154e-15
  endloop
endfacet
facet normal 1.0 0.0 0.0
  outer loop
    vertex 1791.982563983751 397.39091183410477 2.0000000000000093
    vertex 1791.982563983751 403.39091183410477 9.517386878599154e-15
    vertex 1791.982563983751 403.39091183410477 2.0000000000000093
  endloop
endfacet
facet normal -0.0 -1.0 -0.0
  outer loop
    vertex 1791.982563983751 397.39091183410477 2.0000000000000093
    vertex 1785.9825639837509 397.39091183410477 9.517386878599154e-15
    vertex 1791.982563983751 397.39091183410477 9.517386878599154e-15
  endloop
endfacet
facet normal -0.0 -1.0 -0.0
  outer loop
    vertex 1785.9825639837509 397.39091183410477 9.517386878599154e-15
    vertex 1791.982563983751 397.39091183410477 2.0000000000000093
    vertex 1785.9825639837509 397.39091183410477 2.0000000000000093
  endloop
endfacet
facet normal 0.0 0.0 1.0
  outer loop
    vertex 1785.9825639837509 397.39091183410477 2.0000000000000093
    vertex 1787.3404900790595 399.9509194574305 2.0000000000000093
    vertex 1785.9825639837509 403.39091183410477 2.0000000000000093
  endloop
endfacet
facet normal 0.0 0.0 1.0
  outer loop
    vertex 1787.3404900790595 399.9509194574305 2.0000000000000093
    vertex 1785.9825639837509 397.39091183410477 2.0000000000000093
    vertex 1787.5103207973175 399.5409118341048 2.0000000000000093
  endloop
endfacet
facet normal 0.0 0.0 1.0
  outer loop
    vertex 1787.5103207973175 399.5409118341048 2.0000000000000093
    vertex 1785.9825639837509 397.39091183410477 2.0000000000000093
    vertex 1787.7804824557338 399.18883030608765 2.0000000000000093
  endloop
endfacet
facet normal 0.0 0.0 1.0
  outer loop
    vertex 1787.7804824557338 399.18883030608765 2.0000000000000093
    vertex 1785.9825639837509 397.39091183410477 2.0000000000000093
    vertex 1788.1325639837507 398.91866864767127 2.0000000000000093
  endloop
endfacet
facet normal 0.0 0.0 1.0
  outer loop
    vertex 1788.1325639837507 398.91866864767127 2.0000000000000093
    vertex 1785.9825639837509 397.39091183410477 2.0000000000000093
    vertex 1788.5425716070768 398.7488379294134 2.0000000000000093
  endloop
endfacet
facet normal 0.0 0.0 1.0
  outer loop
    vertex 1788.5425716070768 398.7488379294134 2.0000000000000093
    vertex 1785.9825639837509 397.39091183410477 2.0000000000000093
    vertex 1791.982563983751 397.39091183410477 2.0000000000000093
  endloop
endfacet
facet normal 0.0 0.0 1.0
  outer loop
    vertex 1785.9825639837509 403.39091183410477 2.0000000000000093
    vertex 1787.3404900790595 399.9509194574305 2.0000000000000093
    vertex 1787.282563983751 400.39091183410477 2.0000000000000093
  endloop
endfacet
facet normal 0.0 0.0 1.0
  outer loop
    vertex 1788.5425716070768 398.7488379294134 2.0000000000000093
    vertex 1791.982563983751 397.39091183410477 2.0000000000000093
    vertex 1788.982563983751 398.6909118341048 2.0000000000000093
  endloop
endfacet
facet normal 0.0 0.0 1.0
  outer loop
    vertex 1788.982563983751 398.6909118341048 2.0000000000000093
    vertex 1791.982563983751 397.39091183410477 2.0000000000000093
    vertex 1789.4225563604252 398.7488379294134 2.0000000000000093
  endloop
endfacet
facet normal 0.0 0.0 1.0
  outer loop
    vertex 1789.4225563604252 398.7488379294134 2.0000000000000093
    vertex 1791.982563983751 397.39091183410477 2.0000000000000093
    vertex 1789.8325639837512 398.91866864767127 2.0000000000000093
  endloop
endfacet
facet normal 0.0 0.0 1.0
  outer loop
    vertex 1789.8325639837512 398.91866864767127 2.0000000000000093
    vertex 1791.982563983751 397.39091183410477 2.0000000000000093
    vertex 1790.1846455117682 399.18883030608765 2.0000000000000093
  endloop
endfacet
facet normal 0.0 0.0 1.0
  outer loop
    vertex 1790.1846455117682 399.18883030608765 2.0000000000000093
    vertex 1791.982563983751 397.39091183410477 2.0000000000000093
    vertex 1790.4548071701845 399.5409118341048 2.0000000000000093
  endloop
endfacet
facet normal 0.0 0.0 1.0
  outer loop
    vertex 1790.4548071701845 399.5409118341048 2.0000000000000093
    vertex 1791.982563983751 397.39091183410477 2.0000000000000093
    vertex 1790.6246378884425 399.95091945743053 2.0000000000000093
  endloop
endfacet
facet normal 0.0 0.0 1.0
  outer loop
    vertex 1790.6246378884425 399.95091945743053 2.0000000000000093
    vertex 1791.982563983751 397.39091183410477 2.0000000000000093
    vertex 1790.682563983751 400.39091183410477 2.0000000000000093
  endloop
endfacet
facet normal 0.0 0.0 1.0
  outer loop
    vertex 1785.9825639837509 403.39091183410477 2.0000000000000093
    vertex 1788.5425716070768 402.0329857387962 2.0000000000000093
    vertex 1791.982563983751 403.39091183410477 2.0000000000000093
  endloop
endfacet
facet normal 0.0 0.0 1.0
  outer loop
    vertex 1788.5425716070768 402.0329857387962 2.0000000000000093
    vertex 1785.9825639837509 403.39091183410477 2.0000000000000093
    vertex 1788.1325639837507 401.86315502053833 2.0000000000000093
  endloop
endfacet
facet normal 0.0 0.0 1.0
  outer loop
    vertex 1788.1325639837507 401.86315502053833 2.0000000000000093
    vertex 1785.9825639837509 403.39091183410477 2.0000000000000093
    vertex 1787.7804824557338 401.59299336212194 2.0000000000000093
  endloop
endfacet
facet normal 0.0 0.0 1.0
  outer loop
    vertex 1787.7804824557338 401.59299336212194 2.0000000000000093
    vertex 1785.9825639837509 403.39091183410477 2.0000000000000093
    vertex 1787.5103207973175 401.2409118341048 2.0000000000000093
  endloop
endfacet
facet normal 0.0 0.0 1.0
  outer loop
    vertex 1787.5103207973175 401.2409118341048 2.0000000000000093
    vertex 1785.9825639837509 403.39091183410477 2.0000000000000093
    vertex 1787.3404900790595 400.83090421077907 2.0000000000000093
  endloop
endfacet
facet normal 0.0 0.0 1.0
  outer loop
    vertex 1787.3404900790595 400.83090421077907 2.0000000000000093
    vertex 1785.9825639837509 403.39091183410477 2.0000000000000093
    vertex 1787.282563983751 400.39091183410477 2.0000000000000093
  endloop
endfacet
facet normal 0.0 0.0 1.0
  outer loop
    vertex 1791.982563983751 403.39091183410477 2.0000000000000093
    vertex 1788.5425716070768 402.0329857387962 2.0000000000000093
    vertex 1788.982563983751 402.0909118341048 2.0000000000000093
  endloop
endfacet
facet normal 0.0 0.0 1.0
  outer loop
    vertex 1791.982563983751 403.39091183410477 2.0000000000000093
    vertex 1788.982563983751 402.0909118341048 2.0000000000000093
    vertex 1789.4225563604252 402.0329857387962 2.0000000000000093
  endloop
endfacet
facet normal 0.0 0.0 1.0
  outer loop
    vertex 1791.982563983751 403.39091183410477 2.0000000000000093
    vertex 1789.4225563604252 402.0329857387962 2.0000000000000093
    vertex 1789.8325639837512 401.86315502053833 2.0000000000000093
  endloop
endfacet
facet normal 0.0 0.0 1.0
  outer loop
    vertex 1791.982563983751 403.39091183410477 2.0000000000000093
    vertex 1789.8325639837512 401.86315502053833 2.0000000000000093
    vertex 1790.1846455117682 401.59299336212194 2.0000000000000093
  endloop
endfacet
facet normal 0.0 0.0 1.0
  outer loop
    vertex 1791.982563983751 403.39091183410477 2.0000000000000093
    vertex 1790.1846455117682 401.59299336212194 2.0000000000000093
    vertex 1790.4548071701845 401.2409118341048 2.0000000000000093
  endloop
endfacet
facet normal 0.0 0.0 1.0
  outer loop
    vertex 1791.982563983751 403.39091183410477 2.0000000000000093
    vertex 1790.4548071701845 401.2409118341048 2.0000000000000093
    vertex 1790.6246378884425 400.8309042107791 2.0000000000000093
  endloop
endfacet
facet normal 0.0 0.0 1.0
  outer loop
    vertex 1791.982563983751 403.39091183410477 2.0000000000000093
    vertex 1790.6246378884425 400.8309042107791 2.0000000000000093
    vertex 1790.682563983751 400.39091183410477 2.0000000000000093
  endloop
endfacet
facet normal 0.0 0.0 1.0
  outer loop
    vertex 1791.982563983751 403.39091183410477 2.0000000000000093
    vertex 1790.682563983751 400.39091183410477 2.0000000000000093
    vertex 1791.982563983751 397.39091183410477 2.0000000000000093
  endloop
endfacet
endsolid 280 EA Oct 23
